<?xml version="1.0" encoding="UTF-8"?>
<!DOCTYPE svg PUBLIC "-//W3C//DTD SVG 1.1//EN" "http://www.w3.org/Graphics/SVG/1.1/DTD/svg11.dtd">
<!-- Creator: CorelDRAW X8 -->
<svg xmlns="http://www.w3.org/2000/svg" xml:space="preserve" width="128px" height="128px" version="1.1" style="shape-rendering:geometricPrecision; text-rendering:geometricPrecision; image-rendering:optimizeQuality; fill-rule:evenodd; clip-rule:evenodd"
viewBox="0 0 3654449 3654449"
 xmlns:xlink="http://www.w3.org/1999/xlink">
 <defs>
  <style type="text/css">
   <![CDATA[
    .str0 {stroke:black;stroke-width:652.837}
    .fil0 {fill:black}
    .fil2 {fill:white}
    .fil1 {fill:white;fill-rule:nonzero}
   ]]>
  </style>
 </defs>
 <g id="Слой_x0020_1">
  <metadata id="CorelCorpID_0Corel-Layer"/>
  <g id="_2026930976">
   <rect class="fil0 str0" x="326" y="326" width="3653797" height="3653796"/>
   <g>
    <path class="fil1" d="M629171 2617137c-18269,0 -34736,-4039 -49404,-12120 -14667,-8079 -26171,-19278 -34516,-33593 -8343,-14317 -12514,-30345 -12514,-48086 0,-17740 4171,-33770 12514,-48085 8345,-14317 19894,-25513 34649,-33594 14755,-8080 31265,-12121 49533,-12121 13702,0 26349,2283 37943,6852 11591,4567 21429,11242 29509,20024l-12384 12384c-14404,-14579 -32583,-21869 -54540,-21869 -14580,0 -27842,3336 -39786,10011 -11944,6677 -21299,15810 -28061,27403 -6762,11592 -10144,24591 -10144,38995 0,14403 3382,27402 10144,38996 6762,11591 16117,20727 28061,27401 11944,6675 25206,10013 39786,10013 22132,0 40313,-7379 54540,-22134l12384 12384c-8080,8783 -17961,15502 -29642,20156 -11681,4654 -24373,6983 -38072,6983zm197084 -123573l-52435 0 0 121992 -18706 0 0 -121992 -52432 0 0 -16598 123573 0 0 16598zm145440 -16598l-69295 155190c-5622,12997 -12119,22220 -19497,27664 -7377,5447 -16250,8168 -26613,8168 -6675,0 -12910,-1053 -18706,-3161 -5797,-2108 -10804,-5269 -15018,-9485l8693 -13965c7027,7027 15458,10539 25296,10539 6322,0 11724,-1756 16202,-5270 4480,-3513 8653,-9485 12517,-17916l6060 -13437 -61918 -138327 19496 0 52170 117776 52169 -117776 18444 0zm158354 122255l0 49796 -17654 0 0 -33461 -124100 0 0 33461 -17653 0 0 -49796 7905 0c9310,-528 15632,-7378 18971,-20552 3336,-13174 5619,-31618 6850,-55331l1845 -46372 102229 0 0 122255 21607 0zm-108556 -74830c-878,19674 -2546,35877 -5004,48614 -2461,12734 -6852,21472 -13174,26216l86421 0 0 -105657 -66662 0 -1581 30827zm144915 -47425l18708 0 0 110133 92481 -110133 16600 0 0 138590 -18709 0 0 -110136 -92217 110136 -16863 0 0 -138590zm287721 0l0 138590 -17126 0 0 -45845 -43476 0 -5269 0 -32143 45845 -20289 0 34516 -48481c-10716,-2986 -18971,-8080 -24768,-15282 -5797,-7200 -8695,-16335 -8695,-27402 0,-15457 5271,-27226 15810,-35306 10538,-8080 24943,-12119 43211,-12119l58229 0zm-98279 47953c0,20552 13086,30828 39260,30828l41893 0 0 -62183 -40578 0c-27049,0 -40575,10451 -40575,31355zm355700 74302l0 49796 -17653 0 0 -33461 -124100 0 0 33461 -17653 0 0 -49796 7905 0c9310,-528 15632,-7378 18971,-20552 3336,-13174 5619,-31618 6850,-55331l1845 -46372 102228 0 0 122255 21607 0zm-108555 -74830c-878,19674 -2546,35877 -5004,48614 -2461,12734 -6852,21472 -13175,26216l86421 0 0 -105657 -66661 0 -1581 30827zm266117 27667l-115933 0c1055,14402 6587,26041 16600,34911 10011,8870 22660,13305 37940,13305 8608,0 16513,-1536 23715,-4612 7200,-3073 13437,-7595 18706,-13567l10539 12119c-6147,7378 -13832,12999 -23053,16863 -9223,3864 -19366,5797 -30432,5797 -14230,0 -26831,-3031 -37810,-9091 -10979,-6059 -19541,-14447 -25691,-25162 -6147,-10714 -9220,-22835 -9220,-36360 0,-13527 2941,-25646 8825,-36362 5885,-10713 13965,-19056 24241,-25030 10276,-5972 21824,-8958 34648,-8958 12822,0 24328,2986 34516,8958 10189,5974 18181,14272 23976,24900 5797,10626 8695,22790 8695,36492l-262 5797zm-66925 -60075c-13349,0 -24548,4259 -33593,12780 -9048,8520 -14185,19628 -15415,33330l98279 0c-1230,-13702 -6367,-24810 -15415,-33330 -9045,-8521 -20331,-12780 -33856,-12780zm199983 1581l-52434 0 0 121992 -18707 0 0 -121992 -52432 0 0 -16598 123573 0 0 16598zm142016 58494l-115932 0c1054,14402 6587,26041 16600,34911 10010,8870 22659,13305 37940,13305 8607,0 16512,-1536 23715,-4612 7200,-3073 13437,-7595 18706,-13567l10539 12119c-6148,7378 -13833,12999 -23053,16863 -9223,3864 -19367,5797 -30433,5797 -14229,0 -26831,-3031 -37809,-9091 -10979,-6059 -19542,-14447 -25691,-25162 -6147,-10714 -9221,-22835 -9221,-36360 0,-13527 2941,-25646 8826,-36362 5884,-10713 13964,-19056 24240,-25030 10276,-5972 21825,-8958 34649,-8958 12822,0 24328,2986 34516,8958 10188,5974 18181,14272 23976,24900 5796,10626 8695,22790 8695,36492l-263 5797zm-66924 -60075c-13350,0 -24548,4259 -33594,12780 -9047,8520 -14184,19628 -15414,33330l98279 0c-1230,-13702 -6367,-24810 -15415,-33330 -9046,-8521 -20332,-12780 -33856,-12780zm108553 -15017l18708 0 0 110133 92481 -110133 16600 0 0 138590 -18709 0 0 -110136 -92217 110136 -16863 0 0 -138590zm62973 -20026c-11947,0 -21430,-2986 -28457,-8958 -7025,-5972 -10626,-14403 -10804,-25294l13440 0c175,6850 2633,12340 7377,16468 4742,4127 10889,6192 18444,6192 7552,0 13744,-2065 18573,-6192 4832,-4128 7335,-9618 7510,-16468l13437 0c-175,10891 -3819,19322 -10934,25294 -7114,5972 -16642,8958 -28586,8958zm231598 20026l0 138590 -18707 0 0 -121992 -66398 0 -1844 34254c-1405,28806 -4741,50939 -10013,66396 -5269,15458 -14667,23187 -28192,23187 -3688,0 -8167,-702 -13437,-2108l1318 -16072c3161,702 5357,1053 6587,1053 7200,0 12647,-3336 16336,-10011 3689,-6675 6147,-14932 7377,-24768 1228,-9836 2283,-22835 3161,-38995l2371 -49534 101441 0zm53222 0l18709 0 0 110133 92480 -110133 16600 0 0 138590 -18709 0 0 -110136 -92217 110136 -16863 0 0 -138590zm181274 0l18708 0 0 61390 87211 0 0 -61390 18707 0 0 138590 -18707 0 0 -61127 -87211 0 0 61127 -18708 0 0 -138590zm275865 16598l-79306 0 0 121992 -18709 0 0 -138590 98015 0 0 16598zm74829 -17653c18093,0 31968,4524 41631,13569 9660,9046 14490,22440 14490,40181l0 85895 -17916 0 0 -21605c-4216,7201 -10408,12822 -18576,16863 -8168,4039 -17873,6060 -29115,6060 -15457,0 -27753,-3689 -36887,-11066 -9133,-7378 -13701,-17128 -13701,-29247 0,-11769 4261,-21255 12779,-28457 8520,-7200 22089,-10801 40708,-10801l44002 0 0 -8432c0,-11944 -3339,-21035 -10013,-27269 -6675,-6237 -16424,-9356 -29248,-9356 -8780,0 -17213,1450 -25293,4349 -8080,2898 -15017,6895 -20814,11989l-8433 -13965c7027,-5972 15458,-10583 25296,-13834 9836,-3249 20199,-4874 31090,-4874zm-6587 126208c10538,0 19586,-2416 27139,-7247 7552,-4829 13174,-11811 16863,-20947l0 -22657 -43475 0c-23712,0 -35571,8255 -35571,24765 0,8081 3076,14447 9223,19104 6147,4654 14755,6982 25821,6982z"/>
    <path class="fil1" d="M2531565 1541919l-19447 -63988 -97990 0 -19447 63988 -61417 0 94853 -269881 69634 0 95231 269881 -61417 0zm-33059 -111792c-18006,-57965 -28169,-90712 -30428,-98365 -2256,-7591 -3889,-13552 -4829,-18006 -4077,15684 -15685,54516 -34754,116371l70011 0zm269378 111792l-7527 -26223 -2951 0c-6021,9598 -14489,16940 -25531,22146 -11041,5206 -23589,7842 -37641,7842 -24153,0 -42345,-6464 -54579,-19386 -12233,-12923 -18380,-31555 -18380,-55834l0 -134062 56085 0 0 120136c0,14806 2633,25910 7839,33376 5272,7401 13678,11101 25220,11101 15684,0 26977,-5269 33939,-15744 7027,-10476 10478,-27855 10478,-52132l0 -96737 56082 0 0 205517 -43034 0zm188389 -40904c9850,0 21580,-2132 35318,-6461l0 41782c-13989,6209 -31115,9348 -51440,9348 -22460,0 -38771,-5646 -48997,-17002 -10224,-11353 -15368,-28356 -15368,-51065l0 -99119 -26788 0 0 -23713 30865 -18758 16185 -43287 35821 0 0 43662 57526 0 0 42096 -57526 0 0 99182c0,7968 2258,13800 6713,17628 4454,3826 10350,5707 17691,5707zm121514 -62106c0,20328 3325,35697 9975,46110 6713,10415 17566,15622 32621,15622 14930,0 25720,-5144 32245,-15496 6526,-10350 9849,-25783 9849,-46236 0,-20388 -3323,-35632 -9910,-45795 -6650,-10162 -17503,-15244 -32561,-15244 -14930,0 -25720,5020 -32307,15120 -6650,10162 -9912,25406 -9912,45919zm142030 0c0,33439 -8846,59599 -26475,78480 -17628,18884 -42219,28295 -73711,28295 -19698,0 -37075,-4328 -52194,-12988 -15058,-8594 -26600,-21014 -34693,-37199 -8092,-16187 -12169,-35068 -12169,-56588 0,-33625 8781,-59722 26284,-78354 17565,-18632 42158,-27915 73902,-27915 19698,0 37138,4265 52194,12860 15055,8594 26660,20890 34691,36950 8094,16059 12171,34879 12171,56459zm-750733 464669l106584 0 0 139459c-17314,5644 -33562,9598 -48807,11856 -15244,2259 -30865,3388 -46738,3388 -40587,0 -71516,-11921 -92907,-35760 -21393,-23838 -32058,-58026 -32058,-102632 0,-43412 12360,-77225 37201,-101504 24780,-24276 59222,-36384 103197,-36384 27541,0 54140,5521 79734,16562l-18944 45545c-19575,-9787 -39963,-14681 -61165,-14681 -24656,0 -44354,8282 -59159,24781 -14869,16560 -22271,38832 -22271,66747 0,29173 5961,51442 17943,66812 11919,15370 29296,23086 52068,23086 11920,0 23964,-1192 36198,-3702l0 -56145 -50876 0 0 -47428zm222202 150938l-56085 0 0 -286066 56085 0 0 286066zm189329 0l-10852 -27915 -1442 0c-9474,11919 -19198,20136 -29173,24779 -9972,4580 -22960,6901 -39020,6901 -19761,0 -35254,-5646 -46610,-16939 -11356,-11293 -17000,-27352 -17000,-48180 0,-21831 7591,-37953 22898,-48303 15244,-10353 38265,-16125 69005,-17191l35634 -1129 0 -8969c0,-20765 -10666,-31181 -31994,-31181 -16374,0 -35695,4958 -57904,14868l-18506 -37828c23650,-12359 49872,-18569 78668,-18569 27541,0 48681,6023 63361,18005 14742,11982 22083,30237 22083,54765l0 136886 -39148 0zm-16560 -95293l-21705 754c-16250,501 -28419,3449 -36387,8846 -7967,5395 -11919,13675 -11919,24716 0,15808 9035,23776 27164,23776 13048,0 23398,-3763 31178,-11293 7779,-7465 11669,-17440 11669,-29797l0 -17002zm303004 95293l-56020 0 0 -119947c0,-14867 -2636,-25971 -7905,-33373 -5269,-7404 -13677,-11104 -25156,-11104 -15684,0 -27038,5206 -34002,15682 -7025,10478 -10476,27855 -10476,52070l0 96672 -56022 0 0 -205516 42785 0 7528 26348 3136 0c6273,-9912 14867,-17377 25846,-22458 10916,-5083 23401,-7653 37390,-7653 23838,0 41970,6461 54327,19384 12422,12923 18569,31555 18569,55959l0 133936zm200811 0l-162355 0 0 -33061 95229 -129607 -89519 0 0 -42848 153320 0 0 36386 -92658 126283 95983 0 0 42847z"/>
    <path class="fil1" d="M1005230 2152917l-70479 -231897 -355121 0 -70478 231897 -222575 0 343752 -978059 252359 0 76731 217454c19638,-35569 43959,-67542 72992,-95915 89804,-87986 214619,-131864 373992,-131864 99806,0 196201,20008 288960,60020l-68660 165056c-70932,-35466 -144820,-53200 -221665,-53200 -89349,0 -160736,30010 -214390,89804 -53882,60021 -80709,140730 -80709,241901 0,105717 21598,186427 65020,242125 43199,55701 106174,83666 188702,83666 43195,0 86847,-4319 131181,-13414l0 -203478 -184381 0 0 -171876 386267 0 0 505399c-62748,20460 -121633,34784 -176878,42969 -55248,8183 -111856,12276 -169375,12276 -46337,0 -89196,-4290 -128599,-12864l-216646 0zm-119814 -405138c-65250,-210070 -102081,-328746 -110264,-356484 -8186,-27509 -14097,-49107 -17508,-65249 -14777,56839 -56837,197566 -125950,421733l253722 0z"/>
    <polygon class="fil2 str0" points="1960148,986461 2000163,986461 2000163,2343858 1960148,2343858 "/>
   </g>
  </g>
 </g>
</svg>
