<?xml version="1.0" encoding="UTF-8"?>
<!DOCTYPE svg PUBLIC "-//W3C//DTD SVG 1.1//EN" "http://www.w3.org/Graphics/SVG/1.1/DTD/svg11.dtd">
<!-- Creator: CorelDRAW X8 -->
<svg xmlns="http://www.w3.org/2000/svg" xml:space="preserve" width="16px" height="16px" version="1.1" style="shape-rendering:geometricPrecision; text-rendering:geometricPrecision; image-rendering:optimizeQuality; fill-rule:evenodd; clip-rule:evenodd"
viewBox="0 0 456806 456806"
 xmlns:xlink="http://www.w3.org/1999/xlink">
 <defs>
  <style type="text/css">
   <![CDATA[
    .str0 {stroke:black;stroke-width:81.6046}
    .fil0 {fill:black}
    .fil2 {fill:white}
    .fil1 {fill:white;fill-rule:nonzero}
   ]]>
  </style>
 </defs>
 <g id="Слой_x0020_1">
  <metadata id="CorelCorpID_0Corel-Layer"/>
  <g id="_2028106672">
   <rect class="fil0 str0" x="41" y="41" width="456725" height="456725"/>
   <g>
    <path class="fil1" d="M78646 327142c-2283,0 -4342,-505 -6175,-1515 -1834,-1010 -3271,-2410 -4315,-4199 -1042,-1790 -1564,-3793 -1564,-6011 0,-2217 522,-4221 1564,-6010 1044,-1790 2487,-3190 4331,-4200 1845,-1010 3909,-1515 6192,-1515 1713,0 3294,286 4743,857 1449,571 2679,1405 3689,2503l-1548 1548c-1801,-1823 -4073,-2734 -6818,-2734 -1822,0 -3480,417 -4973,1251 -1493,835 -2662,1977 -3508,3426 -845,1449 -1268,3074 -1268,4874 0,1801 423,3425 1268,4875 846,1449 2015,2591 3508,3425 1493,834 3151,1252 4973,1252 2767,0 5039,-923 6818,-2767l1548 1548c-1010,1098 -2245,1938 -3706,2519 -1460,582 -3046,873 -4759,873zm24636 -15447l-6554 0 0 15250 -2339 0 0 -15250 -6554 0 0 -2074 15447 0 0 2074zm18180 -2074l-8662 19399c-703,1624 -1515,2777 -2437,3458 -922,680 -2031,1021 -3327,1021 -834,0 -1613,-132 -2338,-396 -725,-263 -1350,-658 -1877,-1185l1086 -1746c879,879 1933,1317 3162,1317 791,0 1466,-219 2026,-658 560,-439 1081,-1186 1564,-2240l758 -1679 -7740 -17291 2437 0 6521 14722 6521 -14722 2306 0zm19794 15282l0 6224 -2207 0 0 -4182 -15512 0 0 4182 -2207 0 0 -6224 988 0c1164,-66 1954,-923 2372,-2569 417,-1647 702,-3953 856,-6917l231 -5796 12778 0 0 15282 2701 0zm-13569 -9354c-110,2459 -319,4485 -626,6077 -307,1591 -856,2684 -1647,3277l10803 0 0 -13208 -8333 0 -197 3854zm18114 -5928l2339 0 0 13766 11560 -13766 2075 0 0 17324 -2339 0 0 -13767 -11527 13767 -2108 0 0 -17324zm35965 0l0 17324 -2141 0 0 -5731 -5434 0 -659 0 -4018 5731 -2536 0 4315 -6061c-1340,-373 -2372,-1010 -3096,-1910 -725,-900 -1087,-2042 -1087,-3425 0,-1932 659,-3403 1976,-4413 1317,-1010 3118,-1515 5402,-1515l7278 0zm-12285 5994c0,2569 1636,3853 4908,3853l5236 0 0 -7773 -5072 0c-3381,0 -5072,1307 -5072,3920zm44463 9288l0 6224 -2207 0 0 -4182 -15512 0 0 4182 -2207 0 0 -6224 988 0c1164,-66 1954,-923 2371,-2569 417,-1647 703,-3953 857,-6917l230 -5796 12779 0 0 15282 2701 0zm-13570 -9354c-109,2459 -318,4485 -625,6077 -308,1591 -857,2684 -1647,3277l10803 0 0 -13208 -8333 0 -198 3854zm33265 3458l-14492 0c132,1801 824,3255 2075,4364 1252,1109 2833,1663 4743,1663 1076,0 2064,-192 2964,-576 900,-384 1680,-950 2339,-1696l1317 1515c-769,922 -1729,1625 -2882,2108 -1153,483 -2420,724 -3804,724 -1778,0 -3354,-379 -4726,-1136 -1372,-758 -2443,-1806 -3211,-3145 -769,-1340 -1153,-2855 -1153,-4545 0,-1691 368,-3206 1103,-4546 736,-1339 1746,-2382 3030,-3128 1285,-747 2728,-1120 4331,-1120 1603,0 3041,373 4315,1120 1273,746 2273,1784 2997,3112 724,1328 1087,2849 1087,4562l-33 724zm-8366 -7509c-1668,0 -3068,532 -4199,1597 -1131,1065 -1773,2454 -1927,4167l12285 0c-154,-1713 -796,-3102 -1927,-4167 -1130,-1065 -2541,-1597 -4232,-1597zm24998 197l-6554 0 0 15250 -2338 0 0 -15250 -6554 0 0 -2074 15446 0 0 2074zm17752 7312l-14491 0c132,1801 823,3255 2075,4364 1251,1109 2832,1663 4742,1663 1076,0 2064,-192 2965,-576 900,-384 1679,-950 2338,-1696l1317 1515c-768,922 -1729,1625 -2881,2108 -1153,483 -2421,724 -3804,724 -1779,0 -3354,-379 -4727,-1136 -1372,-758 -2442,-1806 -3211,-3145 -768,-1340 -1153,-2855 -1153,-4545 0,-1691 368,-3206 1104,-4546 735,-1339 1745,-2382 3030,-3128 1284,-747 2728,-1120 4331,-1120 1602,0 3041,373 4314,1120 1274,746 2273,1784 2997,3112 725,1328 1087,2849 1087,4562l-33 724zm-8365 -7509c-1669,0 -3069,532 -4199,1597 -1131,1065 -1774,2454 -1927,4167l12285 0c-154,-1713 -796,-3102 -1927,-4167 -1131,-1065 -2542,-1597 -4232,-1597zm13569 -1877l2338 0 0 13766 11560 -13766 2075 0 0 17324 -2338 0 0 -13767 -11527 13767 -2108 0 0 -17324zm7871 -2504c-1493,0 -2678,-373 -3557,-1119 -878,-747 -1328,-1801 -1350,-3162l1680 0c22,856 329,1542 922,2059 593,515 1361,774 2305,774 944,0 1719,-259 2322,-774 604,-517 917,-1203 939,-2059l1680 0c-22,1361 -478,2415 -1367,3162 -890,746 -2081,1119 -3574,1119zm28950 2504l0 17324 -2338 0 0 -15250 -8300 0 -230 4282c-176,3601 -593,6368 -1252,8300 -659,1932 -1833,2898 -3524,2898 -461,0 -1021,-88 -1680,-263l165 -2009c395,87 670,131 824,131 900,0 1580,-417 2041,-1251 462,-834 769,-1867 923,-3096 153,-1230 285,-2855 395,-4875l296 -6191 12680 0zm6653 0l2339 0 0 13766 11560 -13766 2075 0 0 17324 -2339 0 0 -13767 -11527 13767 -2108 0 0 -17324zm22659 0l2339 0 0 7673 10901 0 0 -7673 2338 0 0 17324 -2338 0 0 -7641 -10901 0 0 7641 -2339 0 0 -17324zm34483 2074l-9913 0 0 15250 -2338 0 0 -17324 12251 0 0 2074zm9354 -2206c2262,0 3996,565 5204,1696 1207,1131 1811,2805 1811,5023l0 10737 -2239 0 0 -2701c-527,900 -1301,1603 -2322,2108 -1021,505 -2235,757 -3640,757 -1932,0 -3469,-461 -4611,-1383 -1141,-922 -1712,-2141 -1712,-3656 0,-1471 532,-2657 1597,-3557 1065,-900 2761,-1350 5089,-1350l5500 0 0 -1054c0,-1493 -417,-2629 -1252,-3409 -834,-779 -2053,-1169 -3656,-1169 -1097,0 -2151,181 -3161,543 -1010,363 -1878,862 -2602,1499l-1054 -1746c878,-746 1932,-1323 3162,-1729 1229,-406 2525,-609 3886,-609zm-823 15776c1317,0 2448,-302 3392,-906 944,-604 1647,-1476 2108,-2618l0 -2833 -5434 0c-2965,0 -4447,1032 -4447,3096 0,1010 385,1806 1153,2388 768,582 1844,873 3228,873z"/>
    <path class="fil1" d="M316446 192740l-2431 -7999 -12249 0 -2431 7999 -7677 0 11857 -33735 8704 0 11904 33735 -7677 0zm-4133 -13974c-2250,-7246 -3521,-11339 -3803,-12296 -282,-949 -486,-1694 -604,-2250 -510,1960 -1960,6814 -4344,14546l8751 0zm33673 13974l-941 -3278 -369 0c-753,1200 -1811,2117 -3192,2768 -1380,651 -2948,981 -4705,981 -3019,0 -5293,-808 -6822,-2424 -1529,-1615 -2298,-3944 -2298,-6979l0 -16758 7011 0 0 15017c0,1851 329,3239 980,4172 659,925 1710,1388 3152,1388 1961,0 3373,-659 4243,-1968 878,-1310 1309,-3482 1309,-6517l0 -12092 7011 0 0 25690 -5379 0zm23548 -5113c1231,0 2698,-267 4415,-808l0 5223c-1749,776 -3890,1169 -6430,1169 -2808,0 -4846,-706 -6125,-2126 -1278,-1419 -1921,-3544 -1921,-6383l0 -12390 -3348 0 0 -2964 3858 -2345 2023 -5411 4478 0 0 5458 7190 0 0 5262 -7190 0 0 12398c0,996 282,1725 839,2204 556,478 1293,713 2211,713zm15189 -7763c0,2541 416,4462 1247,5763 839,1302 2196,1953 4078,1953 1866,0 3215,-643 4030,-1937 816,-1294 1232,-3223 1232,-5779 0,-2549 -416,-4454 -1239,-5725 -831,-1270 -2188,-1905 -4070,-1905 -1866,0 -3215,627 -4039,1890 -831,1270 -1239,3175 -1239,5740zm17754 0c0,4179 -1106,7449 -3309,9810 -2204,2360 -5278,3537 -9214,3537 -2462,0 -4635,-542 -6524,-1624 -1883,-1074 -3325,-2627 -4337,-4650 -1011,-2023 -1521,-4383 -1521,-7073 0,-4203 1097,-7466 3285,-9795 2196,-2329 5270,-3489 9238,-3489 2462,0 4642,533 6524,1607 1882,1075 3333,2612 4337,4619 1011,2008 1521,4360 1521,7058zm-93842 58083l13323 0 0 17433c-2164,705 -4195,1199 -6100,1482 -1906,282 -3859,423 -5843,423 -5073,0 -8939,-1490 -11613,-4470 -2674,-2980 -4007,-7253 -4007,-12829 0,-5426 1545,-9653 4650,-12688 3097,-3034 7403,-4548 12899,-4548 3443,0 6768,690 9967,2070l-2368 5693c-2447,-1223 -4995,-1835 -7645,-1835 -3082,0 -5545,1036 -7395,3098 -1859,2070 -2784,4854 -2784,8343 0,3647 745,6431 2243,8352 1490,1921 3662,2886 6508,2886 1490,0 2996,-149 4525,-463l0 -7018 -6360 0 0 -5929zm27776 18868l-7011 0 0 -35759 7011 0 0 35759zm23666 0l-1357 -3490 -180 0c-1184,1490 -2400,2517 -3646,3097 -1247,573 -2871,863 -4878,863 -2470,0 -4407,-706 -5826,-2117 -1420,-1412 -2125,-3419 -2125,-6023 0,-2729 949,-4744 2862,-6038 1906,-1294 4783,-2015 8626,-2148l4454 -142 0 -1121c0,-2595 -1333,-3897 -3999,-3897 -2047,0 -4462,619 -7238,1858l-2314 -4728c2957,-1545 6234,-2322 9834,-2322 3442,0 6085,753 7920,2251 1843,1498 2760,3780 2760,6846l0 17111 -4893 0zm-2070 -11912l-2713 94c-2032,63 -3553,431 -4549,1106 -996,674 -1489,1709 -1489,3089 0,1976 1129,2972 3395,2972 1631,0 2925,-470 3897,-1411 973,-933 1459,-2180 1459,-3725l0 -2125zm37875 11912l-7002 0 0 -14994c0,-1858 -330,-3246 -988,-4172 -659,-925 -1710,-1388 -3145,-1388 -1960,0 -3379,651 -4250,1961 -878,1309 -1309,3482 -1309,6509l0 12084 -7003 0 0 -25690 5348 0 941 3294 392 0c784,-1239 1858,-2173 3231,-2808 1364,-635 2925,-956 4673,-956 2980,0 5247,807 6791,2423 1553,1615 2321,3944 2321,6995l0 16742zm25102 0l-20295 0 0 -4133 11904 -16201 -11190 0 0 -5356 19165 0 0 4548 -11582 15786 11998 0 0 5356z"/>
    <path class="fil1" d="M125654 269115l-8810 -28987 -44390 0 -8810 28987 -27822 0 42969 -122258 31545 0 9591 27182c2455,-4446 5495,-8443 9124,-11989 11226,-10999 26828,-16483 46749,-16483 12476,0 24526,2501 36120,7502l-8582 20632c-8867,-4433 -18103,-6650 -27708,-6650 -11169,0 -20092,3751 -26799,11226 -6735,7502 -10089,17591 -10089,30237 0,13215 2700,23304 8128,30266 5400,6963 13272,10458 23588,10458 5399,0 10855,-540 16397,-1677l0 -25434 -23047 0 0 -21485 48283 0 0 63175c-7844,2557 -15204,4348 -22110,5371 -6906,1023 -13982,1535 -21172,1535 -5792,0 -11149,-537 -16075,-1608l-27080 0zm-14977 -50643c-8156,-26258 -12760,-41093 -13783,-44560 -1023,-3439 -1762,-6138 -2188,-8156 -1848,7105 -7105,24696 -15744,52716l31715 0z"/>
    <polygon class="fil2 str0" points="245019,123308 250020,123308 250020,292982 245019,292982 "/>
   </g>
  </g>
 </g>
</svg>
