<?xml version="1.0" encoding="UTF-8"?>
<!DOCTYPE svg PUBLIC "-//W3C//DTD SVG 1.1//EN" "http://www.w3.org/Graphics/SVG/1.1/DTD/svg11.dtd">
<!-- Creator: CorelDRAW X8 -->
<svg xmlns="http://www.w3.org/2000/svg" xml:space="preserve" width="256px" height="256px" version="1.1" style="shape-rendering:geometricPrecision; text-rendering:geometricPrecision; image-rendering:optimizeQuality; fill-rule:evenodd; clip-rule:evenodd"
viewBox="0 0 7308899 7308897"
 xmlns:xlink="http://www.w3.org/1999/xlink">
 <defs>
  <style type="text/css">
   <![CDATA[
    .str0 {stroke:black;stroke-width:1305.67}
    .fil0 {fill:black}
    .fil2 {fill:white}
    .fil1 {fill:white;fill-rule:nonzero}
   ]]>
  </style>
 </defs>
 <g id="Слой_x0020_1">
  <metadata id="CorelCorpID_0Corel-Layer"/>
  <g id="_1061500080">
   <rect class="fil0 str0" x="653" y="653" width="7307593" height="7307592"/>
   <g>
    <path class="fil1" d="M1258341 5234273c-36536,0 -69472,-8078 -98806,-24238 -29335,-16160 -52343,-38557 -69033,-67187 -16686,-28634 -25028,-60690 -25028,-96171 0,-35482 8342,-67541 25028,-96171 16690,-28634 39788,-51027 69298,-67187 29509,-16161 62530,-24243 99067,-24243 27403,0 52697,4567 75884,13704 23183,9133 42859,22483 59019,40048l-24768 24768c-28809,-29159 -65166,-43738 -109080,-43738 -29160,0 -55683,6672 -79571,20021 -23888,13354 -42598,31621 -56123,54807 -13524,23184 -20287,49182 -20287,77991 0,28805 6763,54803 20287,77990 13525,23183 32235,41454 56123,54803 23888,13349 50411,20027 79571,20027 44264,0 80626,-14760 109080,-44269l24768 24768c-16160,17565 -35921,31004 -59284,40312 -23362,9309 -48745,13965 -76145,13965zm394169 -247145l-104869 0 0 243984 -37412 0 0 -243984 -104865 0 0 -33196 247146 0 0 33196zm290880 -33196l-138590 310381c-11244,25993 -24239,44439 -38994,55328 -14754,10893 -32500,16335 -53227,16335 -13349,0 -25818,-2105 -37412,-6322 -11594,-4216 -21607,-10538 -30035,-18971l17386 -27929c14055,14055 30915,21077 50591,21077 12644,0 23448,-3512 32406,-10539 8958,-7027 17305,-18970 25033,-35831l12119 -26874 -123835 -276655 38992 0 104339 235551 104339 -235551 36888 0zm316707 244510l0 99592 -35307 0 0 -66922 -248200 0 0 66922 -35306 0 0 -99592 15809 0c18621,-1056 31266,-14756 37943,-41104 6672,-26349 11239,-63235 13699,-110661l3691 -92745 204457 0 0 244510 43214 0zm-217111 -149659c-1755,39348 -5091,71753 -10008,97226 -4921,25469 -13704,42944 -26349,52433l172842 0 0 -211314 -133323 0 -3162 61655zm289830 -94851l37417 0 0 220267 184961 -220267 33200 0 0 277180 -37417 0 0 -220271 -184435 220271 -33726 0 0 -277180zm575442 0l0 277180 -34251 0 0 -91690 -86953 0 -10538 0 -64287 91690 -40578 0 69033 -96962c-21432,-5971 -37943,-16159 -49536,-30564 -11594,-14400 -17391,-32671 -17391,-54803 0,-30915 10543,-54453 31620,-70613 21077,-16160 49886,-24238 86423,-24238l116458 0zm-196559 95906c0,41104 26174,61655 78521,61655l83787 0 0 -124365 -81156 0c-54098,0 -81152,20902 -81152,62710zm711402 148604l0 99592 -35307 0 0 -66922 -248201 0 0 66922 -35306 0 0 -99592 15810 0c18621,-1056 31265,-14756 37942,-41104 6673,-26349 11239,-63235 13700,-110661l3691 -92745 204457 0 0 244510 43214 0zm-217111 -149659c-1755,39348 -5092,71753 -10009,97226 -4921,25469 -13704,42944 -26348,52433l172842 0 0 -211314 -133324 0 -3161 61655zm532233 55333l-231865 0c2110,28804 13174,52081 33200,69822 20022,17741 45320,26609 75880,26609 17216,0 33026,-3071 47431,-9223 14399,-6147 26873,-15190 37412,-27134l21077 24239c-12295,14754 -27664,25997 -46106,33725 -18446,7728 -38732,11594 -60864,11594 -28459,0 -53663,-6062 -75620,-18181 -21957,-12119 -39082,-28895 -51381,-50326 -12294,-21427 -18441,-45670 -18441,-72719 0,-27053 5882,-51292 17650,-72723 11770,-21428 27929,-38113 48481,-50062 20552,-11944 43650,-17915 69298,-17915 25643,0 48655,5971 69032,17915 20377,11949 36361,28544 47951,49801 11593,21252 17391,45580 17391,72984l-526 11594zm-133848 -120149c-26699,0 -49096,8518 -67187,25558 -18096,17040 -28369,39258 -30830,66661l196558 0c-2460,-27403 -12734,-49621 -30829,-66661 -18091,-17040 -40663,-25558 -67712,-25558zm399964 3161l-104868 0 0 243984 -37413 0 0 -243984 -104864 0 0 -33196 247145 0 0 33196zm284033 116988l-231865 0c2110,28804 13174,52081 33201,69822 20021,17741 45319,26609 75880,26609 17215,0 33025,-3071 47429,-9223 14401,-6147 26874,-15190 37413,-27134l21077 24239c-12294,14754 -27665,25997 -46106,33725 -18445,7728 -38732,11594 -60865,11594 -28458,0 -53662,-6062 -75619,-18181 -21957,-12119 -39083,-28895 -51381,-50326 -12295,-21427 -18442,-45670 -18442,-72719 0,-27053 5882,-51292 17652,-72723 11768,-21428 27929,-38113 48480,-50062 20552,-11944 43649,-17915 69297,-17915 25644,0 48656,5971 69033,17915 20377,11949 36362,28544 47951,49801 11594,21252 17390,45580 17390,72984l-525 11594zm-133849 -120149c-26698,0 -49096,8518 -67186,25558 -18096,17040 -28369,39258 -30830,66661l196559 0c-2461,-27403 -12735,-49621 -30831,-66661 -18090,-17040 -40663,-25558 -67712,-25558zm217106 -30035l37417 0 0 220267 184961 -220267 33200 0 0 277180 -37417 0 0 -220271 -184434 220271 -33727 0 0 -277180zm125946 -40053c-23892,0 -42859,-5972 -56913,-17915 -14050,-11945 -21252,-28806 -21607,-50587l26878 0c351,13699 5267,24678 14755,32935 9483,8253 21777,12384 36887,12384 15105,0 27489,-4131 37147,-12384 9664,-8257 14670,-19236 15020,-32935l26874 0c-350,21781 -7637,38642 -21867,50587 -14230,11943 -33286,17915 -57174,17915zm463196 40053l0 277180 -37412 0 0 -243984 -132798 0 -3686 68507c-2812,57613 -9484,101878 -20027,132794 -10539,30915 -29334,46374 -56383,46374 -7377,0 -16336,-1405 -26874,-4216l2636 -32145c6322,1405 10713,2105 13174,2105 14400,0 25293,-6672 32671,-20022 7377,-13349 12294,-29864 14754,-49536 2456,-19671 4567,-45670 6322,-77989l4742 -99068 202881 0zm106445 0l37417 0 0 220267 184960 -220267 33201 0 0 277180 -37417 0 0 -220271 -184435 220271 -33726 0 0 -277180zm362548 0l37417 0 0 122780 174422 0 0 -122780 37412 0 0 277180 -37412 0 0 -122254 -174422 0 0 122254 -37417 0 0 -277180zm551729 33196l-158612 0 0 243984 -37416 0 0 -277180 196028 0 0 33196zm149659 -35306c36187,0 63936,9047 83262,27138 19321,18091 28980,44880 28980,80362l0 171790 -35832 0 0 -43209c-8433,14400 -20817,25643 -37152,33726 -16336,8078 -35747,12119 -58229,12119 -30915,0 -55508,-7377 -73774,-22132 -18267,-14755 -27404,-34256 -27404,-58494 0,-23538 8522,-42509 25558,-56914 17041,-14399 44180,-21602 81417,-21602l88004 0 0 -16865c0,-23888 -6678,-42069 -20027,-54538 -13350,-12474 -32846,-18711 -58494,-18711 -17561,0 -34426,2901 -50586,8698 -16161,5796 -30035,13789 -41629,23977l-16866 -27929c14055,-11943 30915,-21167 50591,-27668 19672,-6498 40399,-9748 62181,-9748zm-13174 252416c21077,0 39172,-4831 54277,-14494 15106,-9659 26349,-23623 33727,-41894l0 -45315 -86949 0c-47426,0 -71143,16511 -71143,49532 0,16160 6152,28894 18446,38206 12294,9309 29509,13965 51642,13965z"/>
    <path class="fil1" d="M5063130 3083838l-38894 -127975 -195980 0 -38894 127975 -122834 0 189707 -539763 139268 0 190461 539763 -122834 0zm-66118 -223585c-36012,-115928 -56339,-181423 -60856,-196730 -4513,-15181 -7777,-27102 -9659,-36011 -8154,31368 -31368,109031 -69508,232741l140023 0zm538757 223585l-15056 -52446 -5900 0c-12043,19196 -28980,33879 -51062,44292 -22083,10413 -47179,15684 -75284,15684 -48305,0 -84689,-12927 -109156,-38773 -24467,-25845 -36762,-63110 -36762,-111667l0 -268123 112170 0 0 240270c0,29614 5267,51822 15680,66752 10543,14804 27354,22204 50439,22204 31368,0 53954,-10538 67878,-31490 14054,-20951 20956,-55710 20956,-104262l0 -193474 112165 0 0 411033 -86068 0zm376777 -81807c19699,0 43160,-4266 70636,-12923l0 83563c-27979,12420 -62230,18697 -102880,18697 -44920,0 -77541,-11292 -97994,-34004 -20449,-22707 -30735,-56711 -30735,-102130l0 -198238 -53577 0 0 -47426 61731 -37515 32370 -86576 71641 0 0 87326 115052 0 0 84191 -115052 0 0 198364c0,15935 4517,27601 13425,35257 8909,7651 20701,11414 35383,11414zm243028 -124213c0,40655 6650,71394 19950,92220 13426,20830 35132,31243 65243,31243 29860,0 51440,-10287 64488,-30991 13053,-20700 19699,-51566 19699,-92472 0,-40775 -6646,-71263 -19820,-91591 -13300,-20323 -35005,-30488 -65121,-30488 -29861,0 -51440,10040 -64614,30241 -13301,20323 -19825,50811 -19825,91838zm284060 0c0,66877 -17692,119197 -52949,156960 -35257,37767 -84438,56590 -147423,56590 -39396,0 -74151,-8657 -104387,-25976 -30116,-17188 -53201,-42028 -69388,-74398 -16182,-32374 -24337,-70137 -24337,-113176 0,-67249 17561,-119443 52567,-156708 35131,-37264 84317,-55831 147804,-55831 39397,0 74277,8532 104388,25720 30112,17189 53322,41781 69383,73900 16187,32118 24342,69760 24342,112919zm-1501467 929338l213169 0 0 278918c-34629,11288 -67124,19196 -97613,23713 -30489,4517 -61732,6776 -93477,6776 -81174,0 -143032,-23843 -185814,-71520 -42787,-47677 -64116,-116054 -64116,-205265 0,-86823 24719,-154450 74403,-203007 49559,-48553 118443,-72769 206392,-72769 55082,0 108282,11042 159470,33125l-37888 91088c-39151,-19573 -79926,-29361 -122331,-29361 -49312,0 -88709,16564 -118317,49562 -29739,33120 -44543,77663 -44543,133494 0,58346 11921,102884 35886,133624 23838,30740 58592,46173 104136,46173 23839,0 47929,-2384 72396,-7405l0 -112290 -101753 0 0 -94856zm444405 301876l-112170 0 0 -572132 112170 0 0 572132zm378659 0l-21706 -55831 -2882 0c-18949,23839 -38396,40273 -58346,49559 -19946,9160 -45921,13803 -78040,13803 -39523,0 -70510,-11293 -93221,-33879 -22711,-22586 -34000,-54704 -34000,-96360 0,-43663 15182,-75907 45796,-96606 30489,-20705 76530,-32249 138011,-34382l71268 -2259 0 -17938c0,-41530 -21333,-62360 -63990,-62360 -32747,0 -71389,9915 -115806,29734l-37013 -75655c47299,-24719 99745,-37139 157336,-37139 55082,0 97362,12048 126723,36012 29483,23964 44166,60474 44166,109529l0 273772 -78296 0zm-33120 -190586l-43411 1508c-32500,1002 -56837,6898 -72773,17692 -15936,10790 -23838,27350 -23838,49432 0,31616 18068,47552 54327,47552 26097,0 46796,-7525 62355,-22586 15559,-14930 23340,-34879 23340,-59594l0 -34004zm606007 190586l-112039 0 0 -239893c0,-29734 -5272,-51943 -15810,-66747 -10539,-14809 -27355,-22209 -50313,-22209 -31369,0 -54076,10413 -68004,31365 -14050,20955 -20952,55709 -20952,104141l0 193343 -112043 0 0 -411033 85569 0 15056 52697 6273 0c12545,-19824 29734,-34754 51691,-44915 21831,-10166 46802,-15307 74780,-15307 47677,0 83940,12922 108654,38768 24844,25846 37138,63110 37138,111918l0 267872zm401622 0l-324709 0 0 -66122 190457 -259215 -179038 0 0 -85696 306640 0 0 72773 -185315 252565 191965 0 0 85695z"/>
    <path class="fil1" d="M2010459 4305834l-140956 -463794 -710243 0 -140956 463794 -445150 0 687504 -1956118 504717 0 153462 434909c39276,-71139 87918,-135084 145985,-191831 179609,-175971 429237,-263728 747984,-263728 199612,0 392403,40017 577920,120041l-137319 330111c-141864,-70932 -289641,-106400 -443332,-106400 -178696,0 -321471,60021 -428778,179608 -107765,120041 -161419,281460 -161419,483802 0,211435 43196,372853 130041,484250 86396,111402 212347,167332 377402,167332 86391,0 173694,-8639 262363,-26829l0 -406956 -368763 0 0 -343752 772535 0 0 1010799c-125497,40919 -243266,69567 -353756,85938 -110495,16367 -223711,24553 -338750,24553 -92674,0 -178392,-8581 -257199,-25729l-433292 0zm-239628 -810276c-130499,-420139 -204161,-657492 -220527,-712968 -16372,-55018 -28194,-98214 -35015,-130499 -29555,113679 -113674,395134 -251901,843467l507443 0z"/>
    <polygon class="fil2 str0" points="3920297,1972921 4000325,1972921 4000325,4687717 3920297,4687717 "/>
   </g>
  </g>
 </g>
</svg>
