<?xml version="1.0" encoding="UTF-8"?>
<!DOCTYPE svg PUBLIC "-//W3C//DTD SVG 1.1//EN" "http://www.w3.org/Graphics/SVG/1.1/DTD/svg11.dtd">
<!-- Creator: CorelDRAW X8 -->
<svg xmlns="http://www.w3.org/2000/svg" xml:space="preserve" width="32px" height="32px" version="1.1" style="shape-rendering:geometricPrecision; text-rendering:geometricPrecision; image-rendering:optimizeQuality; fill-rule:evenodd; clip-rule:evenodd"
viewBox="0 0 913612 913612"
 xmlns:xlink="http://www.w3.org/1999/xlink">
 <defs>
  <style type="text/css">
   <![CDATA[
    .str0 {stroke:black;stroke-width:163.209}
    .fil0 {fill:black}
    .fil2 {fill:white}
    .fil1 {fill:white;fill-rule:nonzero}
   ]]>
  </style>
 </defs>
 <g id="Слой_x0020_1">
  <metadata id="CorelCorpID_0Corel-Layer"/>
  <g id="_879616848">
   <rect class="fil0 str0" x="82" y="82" width="913449" height="913449"/>
   <g>
    <path class="fil1" d="M157293 654284c-4567,0 -8684,-1010 -12351,-3030 -3667,-2020 -6543,-4819 -8629,-8398 -2086,-3579 -3129,-7586 -3129,-12021 0,-4436 1043,-8443 3129,-12022 2086,-3579 4973,-6378 8662,-8398 3689,-2020 7816,-3030 12383,-3030 3426,0 6587,570 9486,1713 2898,1141 5357,2810 7377,5006l-3096 3096c-3601,-3645 -8145,-5468 -13635,-5468 -3645,0 -6960,834 -9946,2503 -2986,1669 -5325,3952 -7016,6851 -1690,2898 -2535,6147 -2535,9749 0,3600 845,6850 2535,9748 1691,2898 4030,5182 7016,6851 2986,1668 6301,2503 9946,2503 5533,0 10078,-1845 13635,-5534l3096 3096c-2020,2196 -4490,3876 -7410,5040 -2921,1163 -6093,1745 -9518,1745zm49271 -30893l-13109 0 0 30498 -4676 0 0 -30498 -13108 0 0 -4150 30893 0 0 4150zm36360 -4150l-17324 38798c-1406,3249 -3030,5555 -4874,6916 -1845,1362 -4063,2042 -6654,2042 -1668,0 -3227,-263 -4676,-790 -1449,-527 -2701,-1318 -3754,-2372l2173 -3491c1757,1757 3864,2635 6324,2635 1580,0 2931,-439 4050,-1317 1120,-879 2164,-2372 3129,-4479l1515 -3360 -15479 -34582 4874 0 13042 29444 13043 -29444 4611 0zm39588 30564l0 12449 -4413 0 0 -8365 -31025 0 0 8365 -4414 0 0 -12449 1977 0c2327,-132 3908,-1844 4742,-5138 835,-3293 1405,-7904 1713,-13832l461 -11594 25557 0 0 30564 5402 0zm-27139 -18707c-219,4918 -636,8969 -1251,12153 -615,3184 -1713,5368 -3293,6554l21605 0 0 -26414 -16665 0 -396 7707zm36229 -11857l4677 0 0 27534 23120 -27534 4150 0 0 34648 -4677 0 0 -27534 -23054 27534 -4216 0 0 -34648zm71930 0l0 34648 -4281 0 0 -11461 -10869 0 -1318 0 -8035 11461 -5073 0 8630 -12120c-2679,-747 -4743,-2020 -6192,-3821 -1450,-1800 -2174,-4084 -2174,-6850 0,-3865 1318,-6807 3952,-8827 2635,-2020 6236,-3030 10803,-3030l14557 0zm-24570 11989c0,5138 3272,7707 9815,7707l10474 0 0 -15546 -10145 0c-6762,0 -10144,2613 -10144,7839zm88926 18575l0 12449 -4414 0 0 -8365 -31025 0 0 8365 -4413 0 0 -12449 1976 0c2328,-132 3908,-1844 4743,-5138 834,-3293 1405,-7904 1712,-13832l462 -11594 25557 0 0 30564 5402 0zm-27139 -18707c-220,4918 -637,8969 -1251,12153 -615,3184 -1713,5368 -3294,6554l21605 0 0 -26414 -16665 0 -395 7707zm66529 6916l-28983 0c264,3601 1646,6511 4150,8728 2503,2218 5665,3326 9485,3326 2152,0 4128,-383 5929,-1152 1800,-769 3359,-1899 4676,-3392l2635 3030c-1537,1844 -3458,3249 -5763,4215 -2306,966 -4842,1449 -7609,1449 -3557,0 -6707,-757 -9452,-2272 -2745,-1515 -4885,-3612 -6423,-6291 -1536,-2678 -2305,-5709 -2305,-9090 0,-3381 735,-6411 2207,-9090 1471,-2679 3491,-4764 6060,-6258 2569,-1493 5456,-2239 8662,-2239 3205,0 6082,746 8629,2239 2547,1494 4545,3568 5994,6225 1449,2657 2174,5698 2174,9123l-66 1449zm-16731 -15018c-3337,0 -6137,1065 -8399,3195 -2262,2130 -3546,4907 -3853,8332l24570 0c-308,-3425 -1592,-6202 -3854,-8332 -2262,-2130 -5083,-3195 -8464,-3195zm49995 395l-13108 0 0 30498 -4677 0 0 -30498 -13108 0 0 -4150 30893 0 0 4150zm35504 14623l-28983 0c264,3601 1647,6511 4150,8728 2503,2218 5665,3326 9485,3326 2152,0 4129,-383 5929,-1152 1800,-769 3359,-1899 4677,-3392l2634 3030c-1536,1844 -3458,3249 -5763,4215 -2306,966 -4841,1449 -7608,1449 -3557,0 -6708,-757 -9452,-2272 -2745,-1515 -4886,-3612 -6423,-6291 -1537,-2678 -2305,-5709 -2305,-9090 0,-3381 735,-6411 2206,-9090 1471,-2679 3491,-4764 6060,-6258 2569,-1493 5456,-2239 8662,-2239 3206,0 6082,746 8630,2239 2547,1494 4545,3568 5993,6225 1450,2657 2174,5698 2174,9123l-66 1449zm-16731 -15018c-3337,0 -6137,1065 -8398,3195 -2262,2130 -3546,4907 -3854,8332l24570 0c-307,-3425 -1592,-6202 -3854,-8332 -2261,-2130 -5082,-3195 -8464,-3195zm27139 -3755l4677 0 0 27534 23120 -27534 4150 0 0 34648 -4677 0 0 -27534 -23055 27534 -4215 0 0 -34648zm15743 -5006c-2987,0 -5358,-747 -7114,-2240 -1757,-1493 -2657,-3600 -2701,-6323l3360 0c43,1713 658,3085 1844,4117 1185,1032 2722,1548 4611,1548 1888,0 3436,-516 4643,-1548 1208,-1032 1834,-2404 1878,-4117l3359 0c-44,2723 -955,4830 -2733,6323 -1779,1493 -4161,2240 -7147,2240zm57899 5006l0 34648 -4676 0 0 -30498 -16600 0 -461 8563c-351,7202 -1185,12735 -2503,16600 -1317,3864 -3667,5796 -7048,5796 -922,0 -2042,-175 -3359,-527l329 -4018c791,176 1340,263 1647,263 1800,0 3162,-834 4084,-2502 922,-1669 1537,-3733 1844,-6192 307,-2459 571,-5709 791,-9749l592 -12384 25360 0zm13306 0l4677 0 0 27534 23120 -27534 4150 0 0 34648 -4677 0 0 -27534 -23054 27534 -4216 0 0 -34648zm45318 0l4678 0 0 15348 21802 0 0 -15348 4677 0 0 34648 -4677 0 0 -15282 -21802 0 0 15282 -4678 0 0 -34648zm68967 4150l-19827 0 0 30498 -4677 0 0 -34648 24504 0 0 4150zm18707 -4413c4523,0 7992,1131 10408,3392 2415,2261 3622,5610 3622,10045l0 21474 -4479 0 0 -5401c-1054,1800 -2602,3205 -4644,4216 -2042,1009 -4468,1514 -7278,1514 -3865,0 -6939,-922 -9222,-2766 -2283,-1844 -3426,-4282 -3426,-7312 0,-2942 1066,-5313 3195,-7114 2130,-1800 5523,-2700 10177,-2700l11001 0 0 -2108c0,-2986 -835,-5259 -2504,-6818 -1668,-1559 -4105,-2338 -7311,-2338 -2196,0 -4304,362 -6324,1087 -2020,724 -3754,1723 -5203,2997l-2108 -3491c1756,-1493 3864,-2646 6323,-3459 2459,-812 5050,-1218 7773,-1218zm-1647 31552c2635,0 4897,-604 6785,-1812 1888,-1207 3293,-2953 4216,-5237l0 -5664 -10869 0c-5928,0 -8893,2064 -8893,6191 0,2020 769,3612 2306,4776 1537,1164 3689,1746 6455,1746z"/>
    <path class="fil1" d="M632891 385480l-4862 -15997 -24497 0 -4862 15997 -15354 0 23713 -67471 17409 0 23808 67471 -15355 0zm-8265 -27948c-4501,-14491 -7042,-22678 -7606,-24592 -565,-1897 -973,-3387 -1208,-4501 -1019,3921 -3921,13629 -8688,29093l17502 0zm67345 27948l-1882 -6556 -737 0c-1506,2400 -3623,4235 -6383,5536 -2761,1302 -5897,1961 -9411,1961 -6038,0 -10586,-1616 -13644,-4847 -3059,-3230 -4595,-7888 -4595,-13958l0 -33515 14021 0 0 30033c0,3702 658,6478 1960,8344 1318,1851 3419,2776 6305,2776 3921,0 6744,-1317 8484,-3936 1757,-2619 2620,-6964 2620,-13033l0 -24184 14021 0 0 51379 -10759 0zm47097 -10226c2463,0 5395,-533 8830,-1616l0 10446c-3498,1552 -7779,2337 -12860,2337 -5615,0 -9693,-1412 -12249,-4250 -2557,-2839 -3842,-7089 -3842,-12767l0 -24780 -6698 0 0 -5928 7717 -4689 4046 -10822 8955 0 0 10916 14382 0 0 10523 -14382 0 0 24796c0,1992 565,3450 1678,4407 1114,956 2588,1427 4423,1427zm30379 -15527c0,5082 831,8925 2494,11528 1678,2604 4391,3905 8155,3905 3732,0 6430,-1286 8061,-3874 1631,-2587 2462,-6445 2462,-11559 0,-5097 -831,-8908 -2477,-11449 -1663,-2540 -4376,-3811 -8140,-3811 -3733,0 -6430,1255 -8077,3781 -1663,2540 -2478,6351 -2478,11479zm35507 0c0,8360 -2211,14900 -6618,19620 -4408,4721 -10555,7074 -18428,7074 -4925,0 -9269,-1082 -13049,-3247 -3764,-2148 -6650,-5253 -8673,-9300 -2023,-4047 -3042,-8767 -3042,-14147 0,-8406 2195,-14930 6571,-19588 4391,-4658 10539,-6979 18475,-6979 4925,0 9285,1066 13049,3215 3764,2148 6665,5223 8673,9237 2023,4015 3042,8720 3042,14115zm-187683 116168l26646 0 0 34864c-4329,1411 -8391,2400 -12202,2964 -3811,565 -7716,847 -11684,847 -10147,0 -17879,-2980 -23227,-8940 -5348,-5959 -8014,-14506 -8014,-25658 0,-10853 3089,-19306 9300,-25376 6195,-6069 14805,-9096 25799,-9096 6885,0 13535,1380 19934,4141l-4736 11386c-4894,-2447 -9991,-3670 -15292,-3670 -6164,0 -11088,2070 -14789,6195 -3718,4140 -5568,9708 -5568,16687 0,7293 1490,12860 4485,16703 2980,3842 7325,5771 13018,5771 2979,0 5991,-298 9049,-925l0 -14037 -12719 0 0 -11856zm55550 37734l-14021 0 0 -71517 14021 0 0 71517zm47333 0l-2713 -6979 -361 0c-2368,2980 -4799,5034 -7293,6195 -2493,1145 -5740,1725 -9755,1725 -4940,0 -8814,-1411 -11652,-4235 -2839,-2823 -4251,-6837 -4251,-12044 0,-5458 1898,-9489 5725,-12076 3811,-2588 9566,-4031 17251,-4298l8909 -282 0 -2243c0,-5191 -2667,-7795 -7999,-7795 -4093,0 -8924,1240 -14476,3717l-4626 -9457c5912,-3090 12468,-4642 19667,-4642 6885,0 12170,1506 15840,4501 3685,2996 5521,7560 5521,13692l0 34221 -9787 0zm-4140 -23823l-5427 188c-4062,125 -7104,862 -9096,2212 -1992,1348 -2980,3418 -2980,6179 0,3952 2259,5944 6791,5944 3262,0 5850,-941 7794,-2823 1945,-1867 2918,-4360 2918,-7450l0 -4250zm75751 23823l-14005 0 0 -29987c0,-3716 -659,-6492 -1976,-8343 -1318,-1851 -3420,-2776 -6290,-2776 -3921,0 -6759,1302 -8500,3920 -1756,2620 -2619,6964 -2619,13018l0 24168 -14005 0 0 -51379 10696 0 1882 6587 784 0c1568,-2478 3717,-4344 6461,-5614 2729,-1271 5850,-1914 9348,-1914 5959,0 10492,1616 13581,4846 3106,3231 4643,7889 4643,13990l0 33484zm50203 0l-40589 0 0 -8265 23807 -32402 -22380 0 0 -10712 38330 0 0 9097 -23164 31570 23996 0 0 10712z"/>
    <path class="fil1" d="M251307 538229l-17619 -57974 -88780 0 -17620 57974 -55644 0 85938 -244514 63090 0 19183 54363c4909,-8892 10989,-16885 18248,-23979 22451,-21996 53654,-32966 93498,-32966 24951,0 49050,5002 72240,15005l-17165 41264c-17733,-8866 -36205,-13300 -55417,-13300 -22337,0 -40184,7503 -53597,22451 -13471,15005 -20177,35183 -20177,60475 0,26430 5399,46607 16255,60532 10799,13925 26543,20916 47175,20916 10799,0 21712,-1080 32795,-3353l0 -50870 -46095 0 0 -42969 96567 0 0 126350c-15687,5115 -30408,8696 -44219,10742 -13812,2046 -27964,3069 -42344,3069 -11584,0 -22299,-1072 -32150,-3216l-54162 0zm-29953 -101284c-16312,-52518 -25520,-82187 -27566,-89121 -2046,-6878 -3524,-12277 -4377,-16313 -3694,14210 -14209,49392 -31487,105434l63430 0z"/>
    <polygon class="fil2 str0" points="490037,246615 500041,246615 500041,585965 490037,585965 "/>
   </g>
  </g>
 </g>
</svg>
