<?xml version="1.0" encoding="UTF-8"?>
<!DOCTYPE svg PUBLIC "-//W3C//DTD SVG 1.1//EN" "http://www.w3.org/Graphics/SVG/1.1/DTD/svg11.dtd">
<!-- Creator: CorelDRAW X8 -->
<svg xmlns="http://www.w3.org/2000/svg" xml:space="preserve" width="48px" height="48px" version="1.1" style="shape-rendering:geometricPrecision; text-rendering:geometricPrecision; image-rendering:optimizeQuality; fill-rule:evenodd; clip-rule:evenodd"
viewBox="0 0 1370419 1370418"
 xmlns:xlink="http://www.w3.org/1999/xlink">
 <defs>
  <style type="text/css">
   <![CDATA[
    .str0 {stroke:black;stroke-width:244.814}
    .fil0 {fill:black}
    .fil2 {fill:white}
    .fil1 {fill:white;fill-rule:nonzero}
   ]]>
  </style>
 </defs>
 <g id="Слой_x0020_1">
  <metadata id="CorelCorpID_0Corel-Layer"/>
  <g id="_879614992">
   <rect class="fil0 str0" x="122" y="122" width="1370174" height="1370174"/>
   <g>
    <path class="fil1" d="M235939 981426c-6851,0 -13026,-1514 -18526,-4544 -5501,-3030 -9814,-7230 -12944,-12598 -3128,-5369 -4693,-11379 -4693,-18032 0,-6653 1565,-12664 4693,-18032 3130,-5369 7460,-9568 12993,-12598 5533,-3030 11725,-4545 18576,-4545 5138,0 9880,856 14228,2569 4347,1713 8036,4216 11066,7509l-4644 4644c-5402,-5467 -12219,-8201 -20453,-8201 -5467,0 -10440,1251 -14919,3754 -4479,2504 -7987,5929 -10523,10277 -2536,4347 -3804,9221 -3804,14623 0,5401 1268,10275 3804,14623 2536,4347 6044,7773 10523,10276 4479,2503 9452,3755 14919,3755 8300,0 15118,-2768 20453,-8301l4644 4644c-3030,3294 -6735,5814 -11116,7559 -4380,1745 -9140,2618 -14277,2618zm73907 -46340l-19663 0 0 45748 -7015 0 0 -45748 -19662 0 0 -6224 46340 0 0 6224zm54540 -6224l-25986 58197c-2108,4873 -4545,8332 -7311,10374 -2767,2042 -6094,3063 -9980,3063 -2503,0 -4841,-395 -7015,-1186 -2174,-790 -4051,-1976 -5632,-3557l3260 -5237c2635,2636 5797,3952 9486,3952 2371,0 4396,-658 6076,-1976 1680,-1317 3245,-3557 4694,-6718l2272 -5039 -23219 -51873 7311 0 19564 44166 19563 -44166 6917 0zm59382 45846l0 18673 -6620 0 0 -12547 -46537 0 0 12547 -6620 0 0 -18673 2964 0c3491,-198 5862,-2767 7114,-7707 1251,-4941 2108,-11857 2569,-20749l692 -17390 38336 0 0 45846 8102 0zm-40708 -28061c-329,7377 -955,13454 -1877,18230 -922,4775 -2569,8052 -4940,9831l32408 0 0 -39622 -24998 0 -593 11561zm54343 -17785l7016 0 0 41300 34680 -41300 6225 0 0 51972 -7016 0 0 -41301 -34581 41301 -6324 0 0 -51972zm107895 0l0 51972 -6422 0 0 -17192 -16303 0 -1976 0 -12054 17192 -7608 0 12943 -18181c-4018,-1119 -7114,-3030 -9288,-5731 -2174,-2700 -3261,-6125 -3261,-10275 0,-5797 1977,-10210 5929,-13240 3952,-3030 9354,-4545 16205,-4545l21835 0zm-36854 17983c0,7707 4907,11560 14722,11560l15710 0 0 -23319 -15216 0c-10144,0 -15216,3920 -15216,11759zm133387 27863l0 18673 -6620 0 0 -12547 -46537 0 0 12547 -6620 0 0 -18673 2964 0c3492,-198 5862,-2767 7114,-7707 1251,-4941 2108,-11857 2569,-20749l692 -17390 38336 0 0 45846 8102 0zm-40708 -28061c-329,7377 -955,13454 -1876,18230 -923,4775 -2570,8052 -4941,9831l32408 0 0 -39622 -24998 0 -593 11561zm99794 10375l-43475 0c396,5401 2470,9765 6225,13091 3754,3327 8498,4990 14228,4990 3228,0 6192,-576 8893,-1730 2700,-1152 5039,-2848 7015,-5087l3952 4544c-2306,2767 -5187,4875 -8645,6324 -3459,1449 -7262,2174 -11412,2174 -5336,0 -10062,-1137 -14179,-3409 -4117,-2273 -7328,-5418 -9634,-9436 -2305,-4018 -3458,-8563 -3458,-13635 0,-5073 1103,-9617 3310,-13636 2207,-4017 5236,-7146 9090,-9386 3853,-2240 8184,-3359 12993,-3359 4808,0 9123,1119 12944,3359 3820,2240 6818,5352 8991,9337 2173,3985 3260,8547 3260,13685l-98 2174zm-25097 -22528c-5006,0 -9205,1597 -12597,4792 -3393,3195 -5319,7361 -5781,12499l36855 0c-462,-5138 -2388,-9304 -5781,-12499 -3392,-3195 -7624,-4792 -12696,-4792zm74994 592l-19663 0 0 45748 -7015 0 0 -45748 -19662 0 0 -6224 46340 0 0 6224zm53256 21936l-43475 0c396,5401 2470,9765 6225,13091 3754,3327 8498,4990 14228,4990 3228,0 6192,-576 8893,-1730 2700,-1152 5039,-2848 7015,-5087l3952 4544c-2306,2767 -5188,4875 -8645,6324 -3459,1449 -7263,2174 -11412,2174 -5336,0 -10062,-1137 -14179,-3409 -4117,-2273 -7328,-5418 -9634,-9436 -2305,-4018 -3458,-8563 -3458,-13635 0,-5073 1103,-9617 3310,-13636 2206,-4017 5236,-7146 9090,-9386 3853,-2240 8184,-3359 12993,-3359 4808,0 9123,1119 12944,3359 3820,2240 6818,5352 8991,9337 2173,3985 3260,8547 3260,13685l-98 2174zm-25097 -22528c-5006,0 -9205,1597 -12597,4792 -3393,3195 -5320,7361 -5781,12499l36855 0c-462,-5138 -2388,-9304 -5781,-12499 -3392,-3195 -7624,-4792 -12696,-4792zm40707 -5632l7016 0 0 41300 34680 -41300 6225 0 0 51972 -7015 0 0 -41301 -34582 41301 -6324 0 0 -51972zm23615 -7510c-4479,0 -8036,-1119 -10671,-3359 -2634,-2239 -3985,-5401 -4051,-9485l5039 0c66,2569 988,4627 2767,6176 1778,1547 4083,2322 6916,2322 2832,0 5155,-775 6965,-2322 1812,-1549 2751,-3607 2817,-6176l5039 0c-66,4084 -1433,7246 -4101,9485 -2668,2240 -6241,3359 -10720,3359zm86850 7510l0 51972 -7015 0 0 -45748 -24900 0 -691 12846c-527,10802 -1778,19102 -3755,24898 -1976,5797 -5500,8696 -10572,8696 -1383,0 -3063,-264 -5039,-791l495 -6027c1185,263 2008,395 2470,395 2700,0 4742,-1251 6125,-3755 1384,-2502 2306,-5599 2767,-9288 460,-3688 856,-8563 1185,-14623l889 -18575 38041 0zm19958 0l7016 0 0 41300 34680 -41300 6225 0 0 51972 -7016 0 0 -41301 -34581 41301 -6324 0 0 -51972zm67978 0l7015 0 0 23021 32705 0 0 -23021 7014 0 0 51972 -7014 0 0 -22923 -32705 0 0 22923 -7015 0 0 -51972zm103449 6224l-29740 0 0 45748 -7015 0 0 -51972 36755 0 0 6224zm28061 -6619c6785,0 11988,1696 15612,5088 3622,3392 5433,8415 5433,15068l0 32211 -6718 0 0 -8102c-1581,2700 -3903,4808 -6966,6323 -3063,1515 -6703,2273 -10918,2273 -5797,0 -10408,-1383 -13833,-4150 -3425,-2767 -5138,-6423 -5138,-10968 0,-4413 1598,-7970 4792,-10671 3195,-2700 8284,-4050 15266,-4050l16501 0 0 -3163c0,-4479 -1252,-7887 -3755,-10225 -2504,-2339 -6159,-3509 -10968,-3509 -3293,0 -6455,544 -9485,1631 -3030,1087 -5632,2586 -7805,4496l-3163 -5237c2636,-2239 5797,-3969 9486,-5188 3689,-1218 7575,-1827 11659,-1827zm-2470 47328c3952,0 7345,-906 10177,-2718 2832,-1811 4940,-4429 6324,-7855l0 -8497 -16303 0c-8893,0 -13340,3096 -13340,9288 0,3030 1154,5417 3459,7163 2305,1746 5533,2619 9683,2619z"/>
    <path class="fil1" d="M949337 578220l-7293 -23996 -36746 0 -7293 23996 -23031 0 35570 -101206 26113 0 35711 101206 -23031 0zm-12397 -41923c-6752,-21736 -10564,-34016 -11411,-36886 -846,-2847 -1458,-5082 -1811,-6752 -1529,5881 -5881,20443 -13033,43638l26255 0zm101017 41923l-2823 -9834 -1107 0c-2258,3599 -5433,6352 -9574,8305 -4140,1952 -8846,2941 -14115,2941 -9058,0 -15880,-2424 -20467,-7270 -4588,-4846 -6893,-11834 -6893,-20938l0 -50273 21032 0 0 45051c0,5552 987,9716 2940,12516 1977,2775 5129,4163 9457,4163 5882,0 10117,-1976 12727,-5905 2635,-3928 3929,-10445 3929,-19549l0 -36276 21031 0 0 77069 -16137 0zm70645 -15339c3694,0 8093,-800 13245,-2423l0 15668c-5246,2328 -11669,3506 -19290,3506 -8423,0 -14539,-2118 -18374,-6376 -3834,-4258 -5763,-10634 -5763,-19150l0 -37169 -10046 0 0 -8893 11575 -7034 6069 -16233 13433 0 0 16374 21572 0 0 15786 -21572 0 0 37193c0,2988 847,5175 2517,6611 1670,1434 3881,2140 6634,2140zm45568 -23290c0,7623 1247,13386 3741,17291 2517,3906 6587,5858 12233,5858 5599,0 9645,-1929 12091,-5811 2448,-3881 3694,-9668 3694,-17338 0,-7645 -1246,-13362 -3716,-17173 -2494,-3811 -6564,-5717 -12211,-5717 -5598,0 -9645,1883 -12115,5670 -2494,3811 -3717,9527 -3717,17220zm53261 0c0,12539 -3317,22349 -9928,29430 -6610,7081 -15832,10611 -27641,10611 -7387,0 -13904,-1624 -19573,-4871 -5647,-3223 -9975,-7880 -13010,-13950 -3034,-6070 -4563,-13150 -4563,-21220 0,-12609 3292,-22396 9856,-29383 6587,-6987 15809,-10468 27713,-10468 7387,0 13927,1600 19573,4822 5646,3223 9998,7834 13009,13857 3035,6022 4564,13079 4564,21172zm-281525 174251l39969 0 0 52297c-6492,2116 -12585,3599 -18302,4446 -5717,847 -11575,1271 -17527,1271 -15220,0 -26818,-4471 -34840,-13411 -8023,-8939 -12022,-21760 -12022,-38487 0,-16279 4635,-28959 13951,-38063 9292,-9104 22208,-13645 38698,-13645 10328,0 20303,2071 29901,6211l-7104 17079c-7341,-3670 -14986,-5505 -22937,-5505 -9246,0 -16633,3106 -22185,9293 -5576,6210 -8351,14562 -8351,25030 0,10940 2235,19291 6728,25055 4470,5763 10986,8657 19526,8657 4470,0 8986,-447 13574,-1388l0 -21055 -19079 0 0 -17785zm83326 56602l-21032 0 0 -107275 21032 0 0 107275zm70999 0l-4070 -10469 -540 0c-3553,4470 -7200,7551 -10940,9292 -3740,1718 -8611,2589 -14633,2589 -7410,0 -13220,-2118 -17479,-6353 -4258,-4235 -6375,-10257 -6375,-18067 0,-8187 2847,-14233 8587,-18114 5717,-3882 14349,-6047 25877,-6446l13363 -424 0 -3363c0,-7787 -4000,-11693 -11998,-11693 -6140,0 -13386,1859 -21714,5575l-6940 -14185c8869,-4635 18702,-6964 29501,-6964 10327,0 18255,2259 23760,6753 5528,4493 8281,11338 8281,20536l0 51333 -14680 0zm-6210 -35735l-8140 282c-6094,188 -10657,1294 -13645,3318 -2988,2023 -4469,5128 -4469,9268 0,5928 3387,8916 10186,8916 4893,0 8774,-1411 11692,-4235 2917,-2799 4376,-6540 4376,-11174l0 -6375zm113626 35735l-21007 0 0 -44980c0,-5576 -989,-9740 -2965,-12516 -1976,-2776 -5129,-4164 -9433,-4164 -5882,0 -10139,1953 -12751,5881 -2634,3929 -3928,10446 -3928,19527l0 36252 -21009 0 0 -77069 16045 0 2823 9881 1176 0c2352,-3717 5575,-6517 9692,-8422 4093,-1906 8775,-2870 14021,-2870 8940,0 15739,2423 20373,7269 4658,4846 6963,11833 6963,20985l0 50226zm75304 0l-60883 0 0 -12398 35711 -48603 -33570 0 0 -16068 57495 0 0 13645 -34746 47356 35993 0 0 16068z"/>
    <path class="fil1" d="M376961 807344l-26429 -86961 -133171 0 -26429 86961 -83466 0 128907 -366772 94635 0 28774 81545c7364,-13338 16485,-25328 27372,-35968 33677,-32995 80482,-49449 140247,-49449 37427,0 73576,7503 108360,22508l-25747 61895c-26600,-13299 -54308,-19950 -83125,-19950 -33505,0 -60276,11254 -80396,33677 -20206,22508 -30266,52774 -30266,90713 0,39644 8099,69910 24383,90797 16199,20888 39815,31374 70763,31374 16198,0 32567,-1619 49193,-5030l0 -76304 -69143 0 0 -64454 144850 0 0 189525c-23531,7672 -45612,13044 -66329,16113 -20718,3069 -41946,4604 -63516,4604 -17376,0 -33448,-1609 -48225,-4824l-81242 0zm-44930 -151927c-24469,-78776 -38280,-123280 -41349,-133681 -3070,-10316 -5286,-18415 -6565,-24469 -5542,21315 -21314,74088 -47232,158150l95146 0z"/>
    <polygon class="fil2 str0" points="735056,369923 750061,369923 750061,878947 735056,878947 "/>
   </g>
  </g>
 </g>
</svg>
