<?xml version="1.0" encoding="UTF-8"?>
<!DOCTYPE svg PUBLIC "-//W3C//DTD SVG 1.1//EN" "http://www.w3.org/Graphics/SVG/1.1/DTD/svg11.dtd">
<!-- Creator: CorelDRAW X8 -->
<svg xmlns="http://www.w3.org/2000/svg" xml:space="preserve" width="512px" height="512px" version="1.1" style="shape-rendering:geometricPrecision; text-rendering:geometricPrecision; image-rendering:optimizeQuality; fill-rule:evenodd; clip-rule:evenodd"
viewBox="0 0 17679041 17679041"
 xmlns:xlink="http://www.w3.org/1999/xlink">
 <defs>
  <style type="text/css">
   <![CDATA[
    .str0 {stroke:black;stroke-width:7068.79}
    .fil0 {fill:black}
    .fil2 {fill:white}
    .fil1 {fill:white;fill-rule:nonzero}
   ]]>
  </style>
 </defs>
 <g id="Слой_x0020_1">
  <metadata id="CorelCorpID_0Corel-Layer"/>
  <rect class="fil0 str0" x="3534" y="3536" width="17671972" height="17671969"/>
  <g id="_1058721296">
   <path class="fil1" d="M3045004 12660013c-88356,0 -168003,-19534 -238942,-58614 -70939,-39080 -126581,-93245 -166944,-162480 -40349,-69246 -60526,-146766 -60526,-232570 0,-85805 20177,-163335 60526,-232570 40363,-69246 96220,-123400 167583,-162480 71363,-39080 151219,-58625 239576,-58625 66270,0 127436,11045 183513,33142 56062,22087 103646,54370 142726,96846l-59898 59897c-69670,-70514 -157591,-105773 -263789,-105773 -70519,0 -134661,16134 -192427,48417 -57770,32294 -103017,76467 -135724,132544 -32704,56062 -49058,118932 -49058,188602 0,69659 16354,132529 49058,188606 32707,56062 77954,100246 135724,132529 57766,32283 121908,48428 192427,48428 107042,0 194978,-35690 263789,-107053l59898 59894c-39080,42480 -86872,74982 -143370,97489 -56497,22511 -117879,33771 -184142,33771zm953220 -597669l-253604 0 0 590024 -90473 0 0 -590024 -253597 0 0 -80281 597674 0 0 80281zm703436 -80281l-335153 750596c-27190,62859 -58614,107467 -94297,133802 -35680,26342 -78595,39504 -128719,39504 -32283,0 -62435,-5093 -90474,-15290 -28038,-10197 -52252,-25487 -72635,-45880l42045 -67539c33987,33987 74763,50970 122347,50970 30576,0 56702,-8490 78364,-25487 21666,-16993 41851,-45876 60537,-86649l29308 -64990 -299470 -669037 94298 0 252320 569635 252324 -569635 89205 0zm765896 591297l0 240848 -85384 0 0 -161840 -600225 0 0 161840 -85380 0 0 -240848 38235 0c45028,-2551 75608,-35679 91753,-99397 16138,-63718 27179,-152923 33131,-267614l8925 -224286 494440 0 0 591297 104505 0zm-525041 -361918c-4245,95157 -12314,173521 -24204,235122 -11900,61590 -33138,103855 -63718,126796l417985 0 0 -511016 -322418 0 -7645 149098zm700895 -229379l90487 0 0 532672 447289 -532672 80290 0 0 670305 -90487 0 0 -532682 -446019 532682 -81560 0 0 -670305zm1391593 0l0 670305 -82828 0 0 -221733 -210279 0 -25486 0 -155464 221733 -98129 0 166940 -234482c-51829,-14442 -91753,-39080 -119791,-73915 -28039,-34821 -42056,-79008 -42056,-132529 0,-74763 25497,-131684 76466,-170764 50970,-39080 120640,-58615 208996,-58615l281631 0zm-475337 231931c0,99401 63294,149102 189886,149102l202623 0 0 -300752 -196261 0c-130826,0 -196248,50545 -196248,151650zm1720384 359366l0 240848 -85384 0 0 -161840 -600224 0 0 161840 -85381 0 0 -240848 38235 0c45028,-2551 75608,-35679 91753,-99397 16138,-63718 27180,-152923 33132,-267614l8924 -224286 494440 0 0 591297 104505 0zm-525041 -361918c-4245,95157 -12314,173521 -24203,235122 -11901,61590 -33139,103855 -63719,126796l417985 0 0 -511016 -322418 0 -7645 149098zm1287103 133812l-560721 0c5103,69660 31859,125948 80287,168852 48421,42904 109598,64348 183502,64348 41632,0 79867,-7426 114702,-22302 34821,-14866 64987,-36737 90473,-65620l50970 58614c-29731,35684 -66899,62874 -111496,81560 -44608,18690 -93669,28038 -147190,28038 -68822,0 -129772,-14660 -182870,-43967 -53100,-29308 -94516,-69875 -124258,-121704 -29728,-51818 -44594,-110443 -44594,-175857 0,-65422 14223,-124040 42685,-175868 28459,-51814 67539,-92166 117240,-121060 49700,-28887 105558,-43328 167583,-43328 62014,0 117663,14441 166940,43328 49276,28894 87936,69027 115960,120431 28038,51393 42056,110227 42056,176497l-1269 28038zm-323687 -290555c-64566,0 -118731,20598 -162480,61806 -43759,41207 -68602,94937 -74554,161207l475337 0c-5949,-66270 -30795,-120000 -74555,-161207 -43748,-41208 -98337,-61806 -163748,-61806zm967236 7645l-253603 0 0 590024 -90477 0 0 -590024 -253593 0 0 -80281 597673 0 0 80281zm686875 282910l-560718 0c5104,69660 31859,125948 80287,168852 48418,42904 109598,64348 183503,64348 41631,0 79863,-7426 114698,-22302 34824,-14866 64990,-36737 90477,-65620l50969 58614c-29731,35684 -66899,62874 -111496,81560 -44607,18690 -93668,28038 -147190,28038 -68821,0 -129772,-14660 -182873,-43967 -53097,-29308 -94513,-69875 -124255,-121704 -29731,-51818 -44597,-110443 -44597,-175857 0,-65422 14226,-124040 42688,-175868 28459,-51814 67539,-92166 117240,-121060 49701,-28887 105558,-43328 167583,-43328 62011,0 117664,14441 166940,43328 49277,28894 87932,69027 115960,120431 28039,51393 42056,110227 42056,176497l-1272 28038zm-323684 -290555c-64566,0 -118731,20598 -162479,61806 -43760,41207 -68607,94937 -74555,161207l475337 0c-5952,-66270 -30795,-120000 -74554,-161207 -43753,-41208 -98338,-61806 -163749,-61806zm525027 -72636l90484 0 0 532672 447292 -532672 80287 0 0 670305 -90484 0 0 -532682 -446019 532682 -81560 0 0 -670305zm304573 -96860c-57776,0 -103646,-14441 -137633,-43324 -33976,-28883 -51393,-69660 -52252,-122336l65001 0c848,33131 12738,59681 35683,79651 22931,19959 52663,29947 89201,29947 36532,0 66479,-9988 89834,-29947 23369,-19970 35478,-46520 36323,-79651l64990 0c-848,52676 -18470,93453 -52881,122336 -34411,28883 -80496,43324 -138266,43324zm1120149 96860l0 670305 -90474 0 0 -590024 -321145 0 -8914 165667c-6800,139330 -22935,246376 -48432,321135 -25483,74763 -70939,112150 -136350,112150 -17841,0 -39504,-3400 -64990,-10196l6372 -77740c15290,3401 25911,5094 31863,5094 34821,0 61166,-16135 79004,-48418 17842,-32283 29732,-72222 35684,-119791 5941,-47573 11044,-110447 15289,-188606l11466 -239576 490627 0zm257417 0l90484 0 0 532672 447292 -532672 80287 0 0 670305 -90484 0 0 -532682 -446019 532682 -81560 0 0 -670305zm876752 0l90484 0 0 296921 421806 0 0 -296921 90473 0 0 670305 -90473 0 0 -295648 -421806 0 0 295648 -90484 0 0 -670305zm1334248 80281l-383573 0 0 590024 -90484 0 0 -670305 474057 0 0 80281zm361919 -85384c87511,0 154615,21881 201351,65630 46728,43749 70083,108534 70083,194339l0 415439 -86653 0 0 -104490c-20393,34824 -50340,62014 -89844,81559 -39504,19535 -86444,29307 -140814,29307 -74763,0 -134236,-17841 -178409,-53524 -44173,-35680 -66270,-82840 -66270,-141454 0,-56921 20609,-102801 61806,-137633 41211,-34824 106838,-52242 196891,-52242l212820 0 0 -40787c0,-57766 -16149,-101734 -48432,-131889 -32283,-30166 -79429,-45247 -141454,-45247 -42469,0 -83256,7015 -122336,21033 -39079,14017 -72631,33347 -100670,57985l-40783 -67542c33987,-28883 74759,-51185 122343,-66910 47573,-15714 97694,-23574 150371,-23574zm-31859 610421c50969,0 94732,-11684 131260,-35054 36528,-23355 63718,-57126 81560,-101310l0 -109587 -210268 0c-114692,0 -172044,39928 -172044,119784 0,39080 14876,69875 44607,92396 29728,22511 71363,33771 124885,33771z"/>
   <path class="fil1" d="M12246136 7459611l-94058 -309482 -473937 0 -94057 309482 -297052 0 458768 -1305311 336792 0 460595 1305311 -297051 0zm-159893 -540698c-87087,-280348 -136244,-438732 -147168,-475751 -10915,-36712 -18807,-65542 -23359,-87084 -19719,75859 -75859,263669 -168093,562835l338620 0zm1302877 540698l-36408 -126828 -14268 0c-29124,46421 -70084,81927 -123485,107110 -53405,25179 -114094,37928 -182057,37928 -116818,0 -204807,-31262 -263976,-93764 -59170,-62503 -88897,-152619 -88897,-270046l0 -648402 271257 0 0 581047c0,71614 12738,125319 37921,161423 25497,35804 66149,53698 121975,53698 75859,0 130476,-25486 164152,-76152 33986,-50665 50676,-134724 50676,-252140l0 -467876 271250 0 0 994002 -208140 0zm911163 -197834c47637,0 104374,-10317 170818,-31251l0 202079c-67663,30035 -150491,45216 -248794,45216 -108633,0 -187520,-27311 -236981,-82232 -49449,-54913 -74328,-137145 -74328,-246983l0 -479398 -129564 0 0 -114688 149286 -90724 78280 -209367 173249 0 0 211180 278231 0 0 203599 -278231 0 0 479705c0,38536 10924,66747 32467,85261 21545,18502 50057,27603 85567,27603zm587713 -300384c0,98316 16082,172655 48245,223016 32470,50373 84960,75555 157779,75555 72208,0 124396,-24879 155951,-74947 31566,-50057 47637,-124700 47637,-223624 0,-98606 -16071,-172337 -47930,-221494 -32163,-49146 -84656,-73731 -157482,-73731 -72211,0 -124400,24278 -156259,73134 -32163,49146 -47941,122877 -47941,222091zm686942 0c0,161730 -42784,288254 -128044,379576 -85264,91332 -204200,136852 -356515,136852 -95273,0 -179317,-20935 -252440,-62817 -72830,-41568 -128652,-101639 -167799,-179919 -39136,-78290 -58855,-169612 -58855,-273692 0,-162628 42469,-288852 127122,-378969 84960,-90116 203906,-135014 357437,-135014 95273,0 179625,20631 252440,62199 72819,41564 128949,101037 167788,178709 39147,77672 58866,168700 58866,273075zm-3631000 2247418l515505 0 0 674511c-83740,27296 -162324,46421 -236055,57342 -73731,10925 -149285,16386 -226056,16386 -196304,0 -345894,-57657 -449356,-172956 -103469,-115295 -155050,-280652 -155050,-496391 0,-209965 59777,-373508 179929,-490935 119848,-117412 286431,-175974 499120,-175974 133201,0 261856,26703 385645,80104l-91626 220281c-94676,-47336 -193285,-71006 -295832,-71006 -119251,0 -214524,40059 -286127,119858 -71918,80093 -107718,187811 -107718,322828 0,141097 28830,248804 86780,323143 57650,74339 141697,111659 251836,111659 57650,0 115907,-5765 175073,-17906l0 -271554 -246068 0 0 -229390zm1074707 730030l-271262 0 0 -1383589 271262 0 0 1383589zm915712 0l-52493 -135018 -6970 0c-45823,57650 -92852,97394 -141096,119848 -48238,22154 -111055,33379 -188726,33379 -95578,0 -170514,-27307 -225438,-81927 -54921,-54621 -82221,-132293 -82221,-233027 0,-105590 36715,-183565 110747,-233623 73731,-50072 185075,-77990 333753,-83147l172351 -5460 0 -43381c0,-100434 -51592,-150806 -154750,-150806 -79192,0 -172641,23977 -280055,71907l-89508 -182958c114387,-59777 241215,-89812 380488,-89812 133204,0 235451,29134 306453,87087 71299,57950 106806,146243 106806,264875l0 662063 -189341 0zm-80093 -460896l-104982 3647c-78598,2422 -137449,16679 -175988,42784 -38536,26095 -57650,66139 -57650,119544 0,76456 43696,114992 131381,114992 63110,0 113167,-18199 150795,-54617 37623,-36108 56444,-84352 56444,-144119l0 -82231zm1465508 460896l-270946 0 0 -580136c0,-71904 -12749,-125612 -38236,-161412 -25483,-35814 -66149,-53709 -121671,-53709 -75859,0 -130769,25183 -164452,75848 -33980,50676 -50669,134724 -50669,251847l0 467562 -270957 0 0 -994003 206935 0 36408 127436 15169 0c30340,-47940 71908,-84044 125008,-108619 52794,-24581 113179,-37015 180838,-37015 115299,0 202994,31251 262761,93753 60081,62502 89812,152619 89812,270653l0 647795zm971241 0l-785243 0 0 -159903 460581 -626861 -432967 0 0 -207239 741548 0 0 175988 -448147 610779 464228 0 0 207236z"/>
   <path class="fil1" d="M4863857 10414768l-340878 -1121594 -1717582 0 -340874 1121594 -1076506 0 1662593 -4730486 1220557 0 371119 1051740c94979,-172033 212611,-326674 353036,-463903 434345,-425552 1038023,-637775 1808850,-637775 482721,0 948950,96772 1397584,290294l-332077 798310c-343070,-171535 -700439,-257307 -1072109,-257307 -432143,0 -777418,145147 -1036917,434345 -260609,290298 -390360,680657 -390360,1169980 0,511314 104459,901673 314480,1171065 208929,269402 513516,404660 912669,404660 208921,0 420049,-20892 634473,-64881l0 -984145 -891781 0 0 -831297 1868225 0 0 2444419c-303488,98956 -588290,168234 -855490,207823 -267211,39581 -540999,59378 -819198,59378 -224113,0 -431405,-20751 -621986,-62220l-1047828 0zm-579496 -1959493c-315586,-1016025 -493723,-1590014 -533301,-1724173 -39592,-133052 -68182,-237511 -84677,-315586 -71473,274909 -274898,955552 -609171,2039759l1227149 0z"/>
   <polygon class="fil2 str0" points="9482420,4773076 9675952,4773076 9675952,11338273 9482420,11338273 "/>
  </g>
 </g>
</svg>
