<?xml version="1.0" encoding="UTF-8"?>
<!DOCTYPE svg PUBLIC "-//W3C//DTD SVG 1.1//EN" "http://www.w3.org/Graphics/SVG/1.1/DTD/svg11.dtd">
<!-- Creator: CorelDRAW X8 -->
<svg xmlns="http://www.w3.org/2000/svg" xml:space="preserve" width="64px" height="64px" version="1.1" style="shape-rendering:geometricPrecision; text-rendering:geometricPrecision; image-rendering:optimizeQuality; fill-rule:evenodd; clip-rule:evenodd"
viewBox="0 0 1827225 1827224"
 xmlns:xlink="http://www.w3.org/1999/xlink">
 <defs>
  <style type="text/css">
   <![CDATA[
    .str0 {stroke:black;stroke-width:326.418}
    .fil0 {fill:black}
    .fil2 {fill:white}
    .fil1 {fill:white;fill-rule:nonzero}
   ]]>
  </style>
 </defs>
 <g id="Слой_x0020_1">
  <metadata id="CorelCorpID_0Corel-Layer"/>
  <g id="_1001444032">
   <rect class="fil0 str0" x="163" y="163" width="1826898" height="1826898"/>
   <g>
    <path class="fil1" d="M314585 1308568c-9134,0 -17368,-2019 -24701,-6059 -7334,-4040 -13086,-9640 -17258,-16797 -4172,-7158 -6258,-15172 -6258,-24043 0,-8870 2086,-16885 6258,-24042 4172,-7159 9947,-12757 17324,-16797 7377,-4040 15633,-6061 24767,-6061 6851,0 13174,1142 18971,3426 5796,2283 10715,5621 14755,10012l-6192 6192c-7203,-7290 -16292,-10935 -27271,-10935 -7289,0 -13920,1668 -19892,5006 -5972,3338 -10650,7905 -14031,13702 -3381,5795 -5072,12295 -5072,19497 0,7201 1691,13701 5072,19498 3381,5796 8059,10363 14031,13701 5972,3337 12603,5006 19892,5006 11067,0 20157,-3690 27271,-11067l6192 6192c-4040,4391 -8981,7751 -14821,10078 -5841,2327 -12187,3491 -19037,3491zm98542 -61786l-26217 0 0 60996 -9353 0 0 -60996 -26216 0 0 -8299 61786 0 0 8299zm72720 -8299l-34647 77595c-2811,6499 -6060,11110 -9748,13832 -3689,2724 -8125,4084 -13307,4084 -3337,0 -6455,-526 -9353,-1580 -2899,-1054 -5402,-2635 -7509,-4743l4347 -6982c3513,3513 7728,5269 12647,5269 3161,0 5862,-878 8102,-2635 2239,-1757 4326,-4743 6258,-8958l3030 -6718 -30959 -69164 9748 0 26085 58888 26085 -58888 9221 0zm79177 61127l0 24898 -8826 0 0 -16730 -62050 0 0 16730 -8827 0 0 -24898 3952 0c4656,-263 7817,-3688 9486,-10276 1668,-6587 2810,-15808 3425,-27665l923 -23186 51114 0 0 61127 10803 0zm-54277 -37414c-439,9837 -1273,17938 -2503,24306 -1230,6367 -3425,10736 -6587,13108l43211 0 0 -52828 -33331 0 -790 15414zm72457 -23713l9354 0 0 55067 46240 -55067 8301 0 0 69295 -9355 0 0 -55068 -46108 55068 -8432 0 0 -69295zm143861 0l0 69295 -8563 0 0 -22922 -21738 0 -2635 0 -16072 22922 -10144 0 17258 -24240c-5358,-1493 -9486,-4040 -12384,-7642 -2898,-3600 -4348,-8167 -4348,-13700 0,-7729 2636,-13613 7905,-17653 5270,-4041 12472,-6060 21606,-6060l29115 0zm-49140 23976c0,10276 6543,15414 19630,15414l20947 0 0 -31091 -20289 0c-13525,0 -20288,5225 -20288,15677zm177850 37151l0 24898 -8826 0 0 -16730 -62051 0 0 16730 -8826 0 0 -24898 3952 0c4655,-263 7817,-3688 9486,-10276 1668,-6587 2810,-15808 3425,-27665l922 -23186 51115 0 0 61127 10803 0zm-54277 -37414c-439,9837 -1274,17938 -2503,24306 -1230,6367 -3426,10736 -6587,13108l43211 0 0 -52828 -33331 0 -790 15414zm133058 13833l-57967 0c528,7201 3294,13020 8301,17456 5005,4435 11330,6652 18970,6652 4304,0 8256,-768 11857,-2306 3600,-1537 6719,-3797 9353,-6784l5269 6060c-3073,3689 -6916,6500 -11526,8432 -4611,1931 -9683,2898 -15216,2898 -7115,0 -13416,-1515 -18905,-4545 -5489,-3030 -9771,-7224 -12845,-12582 -3074,-5357 -4611,-11417 -4611,-18179 0,-6764 1471,-12823 4413,-18181 2942,-5357 6982,-9529 12120,-12516 5138,-2986 10913,-4479 17325,-4479 6410,0 12164,1493 17258,4479 5094,2987 9090,7136 11987,12451 2899,5313 4348,11395 4348,18246l-131 2898zm-33462 -30037c-6675,0 -12274,2129 -16797,6389 -4524,4260 -7092,9815 -7708,16666l49140 0c-615,-6851 -3183,-12406 -7707,-16666 -4523,-4260 -10166,-6389 -16928,-6389zm99991 790l-26217 0 0 60996 -9353 0 0 -60996 -26216 0 0 -8299 61786 0 0 8299zm71008 29247l-57966 0c527,7201 3293,13020 8300,17456 5005,4435 11330,6652 18970,6652 4304,0 8256,-768 11857,-2306 3600,-1537 6719,-3797 9353,-6784l5270 6060c-3074,3689 -6916,6500 -11527,8432 -4611,1931 -9683,2898 -15216,2898 -7114,0 -13416,-1515 -18905,-4545 -5489,-3030 -9770,-7224 -12845,-12582 -3074,-5357 -4610,-11417 -4610,-18179 0,-6764 1470,-12823 4412,-18181 2943,-5357 6983,-9529 12120,-12516 5138,-2986 10913,-4479 17325,-4479 6411,0 12164,1493 17258,4479 5094,2987 9090,7136 11988,12451 2898,5313 4347,11395 4347,18246l-131 2898zm-33462 -30037c-6675,0 -12274,2129 -16797,6389 -4524,4260 -7092,9815 -7707,16666l49139 0c-615,-6851 -3183,-12406 -7707,-16666 -4523,-4260 -10166,-6389 -16928,-6389zm54276 -7509l9354 0 0 55067 46241 -55067 8300 0 0 69295 -9354 0 0 -55068 -46109 55068 -8432 0 0 -69295zm31487 -10013c-5973,0 -10715,-1493 -14229,-4479 -3512,-2986 -5313,-7201 -5401,-12647l6719 0c88,3425 1317,6170 3689,8234 2371,2063 5444,3096 9222,3096 3776,0 6872,-1033 9287,-3096 2415,-2064 3667,-4809 3755,-8234l6718 0c-87,5446 -1909,9661 -5467,12647 -3557,2986 -8321,4479 -14293,4479zm115799 10013l0 69295 -9353 0 0 -60996 -33200 0 -921 17127c-703,14403 -2371,25469 -5007,33198 -2635,7729 -7334,11594 -14096,11594 -1844,0 -4084,-352 -6718,-1054l659 -8037c1580,352 2678,527 3293,527 3600,0 6323,-1668 8168,-5006 1844,-3337 3073,-7466 3689,-12384 614,-4917 1141,-11417 1580,-19497l1185 -24767 50721 0zm26611 0l9354 0 0 55067 46240 -55067 8301 0 0 69295 -9355 0 0 -55068 -46109 55068 -8431 0 0 -69295zm90637 0l9354 0 0 30695 43606 0 0 -30695 9353 0 0 69295 -9353 0 0 -30564 -43606 0 0 30564 -9354 0 0 -69295zm137932 8299l-39653 0 0 60996 -9354 0 0 -69295 49007 0 0 8299zm37415 -8827c9047,0 15984,2262 20815,6785 4831,4523 7245,11220 7245,20090l0 42948 -8957 0 0 -10802c-2109,3600 -5205,6411 -9289,8431 -4083,2020 -8936,3030 -14557,3030 -7729,0 -13877,-1844 -18443,-5533 -4567,-3689 -6851,-8564 -6851,-14624 0,-5884 2130,-10627 6389,-14228 4260,-3600 11045,-5401 20354,-5401l22001 0 0 -4216c0,-5972 -1669,-10517 -5006,-13634 -3338,-3119 -8212,-4678 -14624,-4678 -4390,0 -8606,725 -12646,2174 -4040,1450 -7509,3448 -10408,5995l-4216 -6982c3514,-2986 7729,-5292 12648,-6918 4918,-1624 10100,-2437 15545,-2437zm-3294 63105c5270,0 9793,-1208 13570,-3624 3776,-2415 6587,-5906 8431,-10473l0 -11329 -21737 0c-11856,0 -17786,4127 -17786,12383 0,4040 1538,7223 4612,9551 3074,2328 7377,3492 12910,3492z"/>
    <path class="fil1" d="M1265782 770959l-9723 -31993 -48995 0 -9724 31993 -30708 0 47427 -134940 34817 0 47615 134940 -30709 0zm-16529 -55896c-9003,-28982 -14085,-45355 -15214,-49182 -1128,-3795 -1944,-6776 -2415,-9003 -2038,7842 -7842,27258 -17377,58185l35006 0zm134689 55896l-3764 -13111 -1475 0c-3010,4799 -7245,8470 -12765,11073 -5521,2603 -11795,3921 -18821,3921 -12076,0 -21173,-3232 -27289,-9693 -6117,-6462 -9191,-15778 -9191,-27917l0 -67031 28043 0 0 60068c0,7403 1317,12955 3920,16688 2636,3701 6838,5551 12609,5551 7842,0 13489,-2635 16970,-7873 3514,-5238 5239,-13927 5239,-26065l0 -48369 28041 0 0 102758 -21517 0zm94195 -20451c4924,0 10790,-1067 17659,-3231l0 20891c-6995,3105 -15558,4674 -25720,4674 -11230,0 -19386,-2823 -24499,-8501 -5112,-5677 -7684,-14178 -7684,-25532l0 -49560 -13394 0 0 -11856 15433 -9379 8092 -21644 17910 0 0 21831 28764 0 0 21048 -28764 0 0 49591c0,3984 1130,6900 3357,8814 2227,1913 5175,2854 8846,2854zm60757 -31053c0,10163 1662,17848 4987,23054 3356,5208 8783,7811 16311,7811 7465,0 12860,-2571 16122,-7748 3263,-5175 4924,-12891 4924,-23117 0,-10194 -1661,-17816 -4955,-22898 -3324,-5081 -8751,-7622 -16280,-7622 -7465,0 -12860,2510 -16153,7560 -3325,5081 -4956,12703 -4956,22960zm71014 0c0,16719 -4423,29799 -13237,39239 -8814,9442 -21109,14148 -36855,14148 -9850,0 -18538,-2164 -26097,-6494 -7529,-4297 -13300,-10507 -17347,-18599 -4046,-8094 -6084,-17535 -6084,-28294 0,-16813 4390,-29861 13141,-39177 8783,-9316 21080,-13958 36951,-13958 9850,0 18570,2133 26097,6430 7528,4297 13331,10445 17346,18475 4047,8029 6085,17440 6085,28230zm-375366 232334l53292 0 0 69729c-8657,2823 -16781,4799 -24403,5929 -7622,1129 -15433,1694 -23370,1694 -20293,0 -35757,-5961 -46453,-17880 -10697,-11920 -16029,-29014 -16029,-51317 0,-21705 6180,-38612 18601,-50751 12389,-12138 29610,-18192 51598,-18192 13770,0 27070,2760 39867,8281l-9472 22772c-9787,-4893 -19981,-7341 -30583,-7341 -12327,0 -22177,4142 -29579,12391 -7434,8280 -11136,19416 -11136,33374 0,14586 2981,25721 8972,33406 5959,7685 14648,11543 26034,11543 5960,0 11982,-596 18099,-1851l0 -28073 -25438 0 0 -23714zm111101 75469l-28043 0 0 -143033 28043 0 0 143033zm94665 0l-5427 -13958 -720 0c-4738,5960 -9599,10068 -14587,12390 -4986,2290 -11480,3451 -19510,3451 -9880,0 -17627,-2824 -23305,-8470 -5678,-5646 -8500,-13676 -8500,-24090 0,-10916 3795,-18977 11449,-24152 7622,-5176 19133,-8062 34503,-8595l17817 -565 0 -4484c0,-10383 -5333,-15590 -15998,-15590 -8186,0 -17847,2478 -28951,7433l-9254 -18914c11825,-6179 24937,-9284 39335,-9284 13770,0 24340,3012 31680,9003 7371,5991 11042,15118 11042,27382l0 68443 -19574 0zm-8280 -47647l-10853 378c-8125,250 -14209,1724 -18193,4422 -3984,2698 -5960,6838 -5960,12359 0,7904 4517,11887 13582,11887 6524,0 11699,-1881 15589,-5646 3889,-3733 5835,-8720 5835,-14898l0 -8502zm151502 47647l-28010 0 0 -59973c0,-7434 -1318,-12986 -3953,-16687 -2634,-3702 -6838,-5552 -12578,-5552 -7842,0 -13519,2603 -17001,7841 -3513,5239 -5238,13927 -5238,26035l0 48336 -28011 0 0 -102758 21392 0 3764 13174 1569 0c3136,-4956 7433,-8688 12922,-11229 5458,-2541 11701,-3827 18695,-3827 11920,0 20985,3231 27164,9692 6211,6462 9285,15778 9285,27980l0 66968zm100405 0l-81177 0 0 -16531 47614 -64803 -44760 0 0 -21424 76661 0 0 18193 -46329 63141 47991 0 0 21424z"/>
    <path class="fil1" d="M502615 1076458l-35239 -115948 -177561 0 -35239 115948 -111287 0 171876 -489029 126179 0 38365 108727c9819,-17784 21980,-33771 36497,-47958 44902,-43992 107309,-65932 186995,-65932 49903,0 98101,10005 144480,30011l-34329 82528c-35466,-17733 -72410,-26600 -110833,-26600 -44674,0 -80368,15005 -107195,44902 -26941,30010 -40354,70364 -40354,120950 0,52859 10798,93213 32510,121063 21599,27850 53086,41833 94350,41833 21598,0 43424,-2160 65591,-6708l0 -101739 -92191 0 0 -85938 193134 0 0 252700c-31374,10230 -60816,17392 -88439,21485 -27624,4091 -55928,6138 -84688,6138 -23168,0 -44597,-2146 -64299,-6433l-108323 0zm-59907 -202568c-32625,-105035 -51040,-164373 -55132,-178242 -4093,-13755 -7049,-24554 -8754,-32625 -7388,28419 -28418,98783 -62975,210867l126861 0z"/>
    <polygon class="fil2 str0" points="980074,493230 1000081,493230 1000081,1171929 980074,1171929 "/>
   </g>
  </g>
 </g>
</svg>
