<?xml version="1.0" encoding="UTF-8"?>
<!DOCTYPE svg PUBLIC "-//W3C//DTD SVG 1.1//EN" "http://www.w3.org/Graphics/SVG/1.1/DTD/svg11.dtd">
<!-- Creator: CorelDRAW X8 -->
<svg xmlns="http://www.w3.org/2000/svg" xml:space="preserve" width="72px" height="72px" version="1.1" style="shape-rendering:geometricPrecision; text-rendering:geometricPrecision; image-rendering:optimizeQuality; fill-rule:evenodd; clip-rule:evenodd"
viewBox="0 0 2055628 2055627"
 xmlns:xlink="http://www.w3.org/1999/xlink">
 <defs>
  <style type="text/css">
   <![CDATA[
    .str0 {stroke:black;stroke-width:367.221}
    .fil0 {fill:black}
    .fil2 {fill:white}
    .fil1 {fill:white;fill-rule:nonzero}
   ]]>
  </style>
 </defs>
 <g id="Слой_x0020_1">
  <metadata id="CorelCorpID_0Corel-Layer"/>
  <g id="_1061500656">
   <rect class="fil0 str0" x="184" y="184" width="2055261" height="2055260"/>
   <g>
    <path class="fil1" d="M353909 1472139c-10276,0 -19540,-2272 -27790,-6817 -8250,-4545 -14721,-10844 -19415,-18896 -4693,-8053 -7039,-17069 -7039,-27048 0,-9979 2346,-18996 7039,-27048 4694,-8053 11190,-14352 19490,-18897 8299,-4545 17586,-6818 27862,-6818 7708,0 14821,1285 21343,3854 6520,2569 12054,6324 16599,11264l-6966 6966c-8103,-8201 -18328,-12302 -30679,-12302 -8201,0 -15661,1877 -22379,5632 -6719,3755 -11981,8893 -15785,15414 -3804,6520 -5706,13832 -5706,21935 0,8101 1902,15413 5706,21935 3804,6520 9066,11659 15785,15413 6718,3754 14178,5632 22379,5632 12449,0 22676,-4151 30679,-12450l6966 6966c-4545,4940 -10103,8720 -16674,11338 -6570,2618 -13709,3927 -21415,3927zm110859 -69509l-29494 0 0 68620 -10522 0 0 -68620 -29493 0 0 -9337 69509 0 0 9337zm81810 -9337l-38978 87295c-3162,7311 -6817,12499 -10967,15561 -4150,3064 -9141,4594 -14970,4594 -3755,0 -7262,-592 -10522,-1778 -3261,-1186 -6077,-2964 -8448,-5335l4890 -7855c3953,3952 8695,5927 14229,5927 3556,0 6595,-987 9114,-2964 2520,-1976 4867,-5335 7041,-10077l3408 -7558 -34829 -77810 10967 0 29345 66249 29346 -66249 10374 0zm89074 68769l0 28010 -9930 0 0 -18822 -69806 0 0 18822 -9930 0 0 -28010 4446 0c5238,-297 8794,-4150 10672,-11561 1876,-7410 3161,-17785 3853,-31123l1038 -26085 57503 0 0 68769 12154 0zm-61062 -42092c-494,11067 -1432,20181 -2815,27345 -1384,7163 -3854,12078 -7411,14747l48612 0 0 -59432 -37497 0 -889 17340zm81514 -26677l10524 0 0 61950 52020 -61950 9338 0 0 77957 -10524 0 0 -61951 -51872 61951 -9486 0 0 -77957zm161844 0l0 77957 -9634 0 0 -25788 -24455 0 -2964 0 -18080 25788 -11413 0 19415 -27270c-6027,-1680 -10671,-4545 -13932,-8596 -3260,-4051 -4891,-9189 -4891,-15414 0,-8695 2966,-15315 8893,-19860 5928,-4545 14031,-6817 24307,-6817l32754 0zm-55283 26974c0,11560 7362,17340 22084,17340l23565 0 0 -34977 -22825 0c-15215,0 -22824,5878 -22824,17637zm200082 41795l0 28010 -9930 0 0 -18822 -69806 0 0 18822 -9930 0 0 -28010 4446 0c5237,-297 8794,-4150 10672,-11561 1876,-7410 3161,-17785 3853,-31123l1038 -26085 57503 0 0 68769 12154 0zm-61062 -42092c-494,11067 -1432,20181 -2815,27345 -1384,7163 -3855,12078 -7411,14747l48612 0 0 -59432 -37497 0 -889 17340zm149690 15563l-65212 0c594,8101 3705,14647 9338,19637 5631,4990 12746,7484 21341,7484 4842,0 9288,-864 13340,-2594 4050,-1729 7558,-4272 10522,-7632l5928 6818c-3458,4149 -7781,7311 -12967,9485 -5188,2173 -10894,3261 -17118,3261 -8005,0 -15093,-1705 -21268,-5114 -6176,-3408 -10992,-8126 -14451,-14154 -3458,-6026 -5187,-12845 -5187,-20452 0,-7609 1654,-14426 4964,-20454 3310,-6026 7855,-10719 13635,-14079 5781,-3360 12277,-5039 19490,-5039 7213,0 13685,1679 19416,5039 5731,3360 10226,8028 13486,14006 3261,5977 4891,12819 4891,20527l-148 3261zm-37645 -33792c-7509,0 -13808,2395 -18896,7188 -5089,4793 -7979,11041 -8671,18748l55282 0c-692,-7707 -3581,-13955 -8671,-18748 -5088,-4793 -11436,-7188 -19044,-7188zm112490 889l-29494 0 0 68620 -10522 0 0 -68620 -29493 0 0 -9337 69509 0 0 9337zm79885 32903l-65212 0c593,8101 3705,14647 9337,19637 5631,4990 12746,7484 21341,7484 4842,0 9289,-864 13340,-2594 4050,-1729 7558,-4272 10522,-7632l5928 6818c-3457,4149 -7780,7311 -12967,9485 -5188,2173 -10893,3261 -17118,3261 -8004,0 -15093,-1705 -21268,-5114 -6175,-3408 -10992,-8126 -14451,-14154 -3458,-6026 -5187,-12845 -5187,-20452 0,-7609 1655,-14426 4965,-20454 3310,-6026 7855,-10719 13635,-14079 5780,-3360 12276,-5039 19490,-5039 7212,0 13684,1679 19415,5039 5731,3360 10227,8028 13486,14006 3261,5977 4891,12819 4891,20527l-147 3261zm-37645 -33792c-7509,0 -13809,2395 -18897,7188 -5089,4793 -7978,11041 -8670,18748l55282 0c-692,-7707 -3582,-13955 -8671,-18748 -5088,-4793 -11437,-7188 -19044,-7188zm61061 -8448l10523 0 0 61950 52020 -61950 9338 0 0 77957 -10523 0 0 -61951 -51873 61951 -9485 0 0 -77957zm35422 -11264c-6720,0 -12054,-1680 -16007,-5039 -3951,-3360 -5977,-8102 -6077,-14228l7560 0c98,3853 1481,6941 4149,9263 2668,2321 6125,3483 10375,3483 4248,0 7731,-1162 10448,-3483 2717,-2322 4126,-5410 4224,-9263l7558 0c-98,6126 -2148,10868 -6150,14228 -4002,3359 -9361,5039 -16080,5039zm130274 11264l0 77957 -10522 0 0 -68620 -37350 0 -1037 19267c-790,16204 -2667,28654 -5632,37349 -2964,8694 -8250,13042 -15858,13042 -2075,0 -4594,-395 -7558,-1185l741 -9041c1778,395 3013,592 3706,592 4049,0 7113,-1877 9188,-5631 2075,-3755 3458,-8400 4150,-13932 691,-5533 1284,-12845 1778,-21935l1334 -27863 57060 0zm29937 0l10524 0 0 61950 52020 -61950 9338 0 0 77957 -10524 0 0 -61951 -51872 61951 -9486 0 0 -77957zm101967 0l10524 0 0 34532 49056 0 0 -34532 10522 0 0 77957 -10522 0 0 -34384 -49056 0 0 34384 -10524 0 0 -77957zm155174 9337l-44610 0 0 68620 -10523 0 0 -77957 55133 0 0 9337zm42092 -9930c10177,0 17982,2544 23417,7632 5434,5089 8150,12623 8150,22602l0 48316 -10077 0 0 -12152c-2372,4050 -5855,7212 -10449,9485 -4595,2272 -10054,3409 -16377,3409 -8695,0 -15612,-2075 -20749,-6225 -5137,-4150 -7707,-9635 -7707,-16451 0,-6620 2397,-11956 7188,-16007 4792,-4050 12425,-6076 22898,-6076l24751 0 0 -4743c0,-6719 -1878,-11832 -5632,-15339 -3755,-3508 -9238,-5263 -16452,-5263 -4939,0 -9682,816 -14227,2447 -4545,1630 -8447,3878 -11708,6743l-4744 -7855c3953,-3359 8695,-5953 14229,-7782 5533,-1827 11362,-2741 17489,-2741zm-3706 70992c5928,0 11017,-1359 15266,-4077 4248,-2716 7410,-6643 9485,-11782l0 -12745 -24454 0c-13338,0 -20009,4644 -20009,13931 0,4545 1730,8126 5188,10745 3458,2619 8300,3928 14524,3928z"/>
    <path class="fil1" d="M1424005 867329l-10939 -35993 -55119 0 -10939 35993 -34547 0 53355 -151808 39169 0 53567 151808 -34547 0zm-18595 -62883c-10129,-32605 -15846,-51025 -17116,-55330 -1269,-4270 -2187,-7623 -2717,-10128 -2293,8822 -8822,30665 -19549,65458l39382 0zm151525 62883l-4234 -14750 -1660 0c-3387,5399 -8150,9529 -14361,12457 -6211,2929 -13269,4411 -21174,4411 -13585,0 -23819,-3636 -30700,-10905 -6881,-7269 -10339,-17749 -10339,-31406l0 -75410 31548 0 0 67576c0,8329 1481,14575 4410,18774 2965,4164 7693,6245 14186,6245 8822,0 15174,-2964 19090,-8856 3953,-5893 5894,-15669 5894,-29324l0 -54415 31547 0 0 115603 -24207 0zm105969 -23008c5540,0 12138,-1200 19866,-3634l0 23502c-7869,3493 -17502,5258 -28935,5258 -12634,0 -21809,-3176 -27561,-9563 -5751,-6387 -8644,-15950 -8644,-28724l0 -55755 -15069 0 0 -13338 17362 -10552 9104 -24349 20149 0 0 24560 32359 0 0 23679 -32359 0 0 55790c0,4482 1271,7763 3776,9916 2506,2152 5822,3210 9952,3210zm68351 -34935c0,11435 1871,20080 5611,25937 3776,5859 9881,8787 18350,8787 8398,0 14467,-2893 18137,-8716 3671,-5822 5540,-14503 5540,-26008 0,-11468 -1869,-20043 -5574,-25760 -3741,-5715 -9845,-8574 -18315,-8574 -8399,0 -14468,2823 -18173,8505 -3741,5716 -5576,14291 -5576,25829zm79892 0c0,18810 -4976,33525 -14892,44145 -9916,10622 -23748,15916 -41462,15916 -11081,0 -20855,-2435 -29360,-7306 -8470,-4834 -14962,-11820 -19515,-20924 -4551,-9105 -6845,-19726 -6845,-31831 0,-18913 4940,-33593 14785,-44074 9881,-10480 23714,-15702 41570,-15702 11080,0 20890,2399 29359,7234 8469,4834 14997,11750 19514,20784 4553,9033 6846,19620 6846,31758zm-422287 261377l59953 0 0 78445c-9739,3175 -18878,5399 -27453,6670 -8575,1270 -17362,1905 -26291,1905 -22830,0 -40227,-6706 -52260,-20115 -12034,-13409 -18033,-32640 -18033,-57731 0,-24418 6953,-43439 20926,-57095 13939,-13656 33312,-20466 58048,-20466 15492,0 30454,3105 44851,9316l-10656 25618c-11011,-5504 -22479,-8257 -34406,-8257 -13869,0 -24949,4658 -33276,13939 -8364,9315 -12528,21843 -12528,37545 0,16410 3353,28936 10093,37582 6704,8646 16479,12986 29288,12986 6705,0 13480,-670 20361,-2082l0 -31582 -28617 0 0 -26678zm124988 84902l-31547 0 0 -160912 31547 0 0 160912zm106498 0l-6105 -15702 -810 0c-5330,6705 -10799,11327 -16410,13938 -5610,2576 -12915,3882 -21949,3882 -11116,0 -19831,-3176 -26218,-9528 -6388,-6352 -9563,-15386 -9563,-27101 0,-12280 4270,-21349 12880,-27171 8575,-5823 21525,-9070 38816,-9670l20044 -635 0 -5045c0,-11680 -6000,-17539 -17997,-17539 -9210,0 -20078,2789 -32571,8363l-10409 -21278c13303,-6952 28053,-10445 44250,-10445 15492,0 27383,3388 35641,10128 8292,6740 12422,17008 12422,30805l0 76998 -22021 0zm-9315 -53602l-12209 424c-9141,282 -15986,1940 -20468,4976 -4481,3035 -6704,7692 -6704,13903 0,8892 5082,13374 15279,13374 7340,0 13162,-2117 17538,-6353 4376,-4199 6564,-9809 6564,-16760l0 -9564zm170440 53602l-31511 0 0 -67470c0,-8362 -1483,-14609 -4447,-18772 -2964,-4165 -7693,-6246 -14150,-6246 -8823,0 -15209,2928 -19127,8821 -3951,5893 -5892,15668 -5892,29289l0 54378 -31512 0 0 -115603 24066 0 4234 14821 1765 0c3528,-5575 8362,-9774 14538,-12632 6140,-2859 13163,-4305 21032,-4305 13409,0 23608,3634 30559,10903 6987,7269 10445,17750 10445,31477l0 75339zm112956 0l-91325 0 0 -18597 53566 -72904 -50354 0 0 -24102 86243 0 0 20468 -52120 71034 53990 0 0 24101z"/>
    <path class="fil1" d="M565442 1211016l-39644 -130442 -199756 0 -39644 130442 -125198 0 193360 -550158 141952 0 43161 122318c11046,-20008 24727,-37993 41058,-53953 50515,-49492 120723,-74173 210371,-74173 56140,0 110363,11255 162540,33761l-38621 92844c-39900,-19949 -81462,-29925 -124687,-29925 -50259,0 -90414,16881 -120594,50515 -30309,33761 -45399,79160 -45399,136069 0,59466 12149,104865 36574,136196 24299,31331 59722,47062 106144,47062 24298,0 48852,-2430 73790,-7546l0 -114456 -103715 0 0 -96681 217276 0 0 284288c-35296,11508 -68419,19565 -99494,24170 -31077,4603 -62919,6905 -95274,6905 -26064,0 -50172,-2413 -72337,-7236l-121863 0zm-67396 -227890c-36703,-118164 -57420,-184920 -62023,-200522 -4605,-15474 -7930,-27623 -9848,-36703 -8312,31972 -31971,111131 -70847,237225l142718 0z"/>
    <polygon class="fil2 str0" points="1102583,554884 1125091,554884 1125091,1318420 1102583,1318420 "/>
   </g>
  </g>
 </g>
</svg>
