<?xml version="1.0" encoding="UTF-8"?>
<!DOCTYPE svg PUBLIC "-//W3C//DTD SVG 1.1//EN" "http://www.w3.org/Graphics/SVG/1.1/DTD/svg11.dtd">
<!-- Creator: CorelDRAW X8 -->
<svg xmlns="http://www.w3.org/2000/svg" xml:space="preserve" width="96px" height="96px" version="1.1" style="shape-rendering:geometricPrecision; text-rendering:geometricPrecision; image-rendering:optimizeQuality; fill-rule:evenodd; clip-rule:evenodd"
viewBox="0 0 2740837 2740837"
 xmlns:xlink="http://www.w3.org/1999/xlink">
 <defs>
  <style type="text/css">
   <![CDATA[
    .str0 {stroke:black;stroke-width:489.627}
    .fil0 {fill:black}
    .fil2 {fill:white}
    .fil1 {fill:white;fill-rule:nonzero}
   ]]>
  </style>
 </defs>
 <g id="Слой_x0020_1">
  <metadata id="CorelCorpID_0Corel-Layer"/>
  <g id="_2024220672">
   <rect class="fil0 str0" x="245" y="245" width="2740347" height="2740347"/>
   <g>
    <path class="fil1" d="M471878 1962852c-13701,0 -26052,-3029 -37053,-9089 -11000,-6060 -19628,-14459 -25887,-25195 -6257,-10738 -9385,-22759 -9385,-36064 0,-13306 3128,-25328 9385,-36064 6259,-10738 14921,-19135 25987,-25195 11066,-6061 23449,-9091 37150,-9091 10276,0 19761,1712 28457,5139 8693,3424 16072,8431 22132,15018l-9288 9288c-10803,-10935 -24437,-16402 -40905,-16402 -10935,0 -20881,2502 -29839,7508 -8958,5007 -15975,11857 -21047,20552 -5071,8694 -7607,18443 -7607,29247 0,10802 2536,20551 7607,29246 5072,8694 12089,15545 21047,20551 8958,5006 18904,7510 29839,7510 16599,0 30234,-5534 40905,-16601l9288 9288c-6060,6587 -13471,11627 -22232,15118 -8761,3490 -18279,5236 -28554,5236zm147813 -92679l-39326 0 0 91494 -14029 0 0 -91494 -39324 0 0 -12449 92679 0 0 12449zm109080 -12449l-51971 116393c-4217,9748 -9090,16665 -14623,20748 -5533,4085 -12187,6126 -19960,6126 -5006,0 -9682,-789 -14029,-2371 -4348,-1581 -8103,-3952 -11263,-7114l6519 -10473c5271,5270 11594,7904 18972,7904 4742,0 8793,-1317 12152,-3952 3359,-2636 6490,-7114 9387,-13437l4545 -10078 -46438 -103746 14622 0 39127 88332 39127 -88332 13833 0zm118765 91692l0 37347 -13240 0 0 -25096 -93075 0 0 25096 -13240 0 0 -37347 5929 0c6983,-396 11725,-5534 14228,-15414 2503,-9881 4215,-23713 5138,-41498l1384 -34780 76671 0 0 91692 16205 0zm-81416 -56122c-658,14755 -1909,26907 -3753,36459 -1846,9551 -5139,16105 -9881,19663l64816 0 0 -79243 -49996 0 -1186 23121zm108686 -35570l14031 0 0 82600 69361 -82600 12450 0 0 103943 -14032 0 0 -82602 -69163 82602 -12647 0 0 -103943zm215791 0l0 103943 -12844 0 0 -34384 -32608 0 -3952 0 -24107 34384 -15217 0 25888 -36361c-8037,-2239 -14229,-6059 -18576,-11461 -4348,-5400 -6522,-12252 -6522,-20551 0,-11594 3954,-20420 11857,-26480 7904,-6060 18708,-9090 32409,-9090l43672 0zm-73710 35965c0,15414 9815,23121 29445,23121l31421 0 0 -46637 -30434 0c-20287,0 -30432,7838 -30432,23516zm266776 55727l0 37347 -13240 0 0 -25096 -93075 0 0 25096 -13240 0 0 -37347 5928 0c6983,-396 11725,-5534 14229,-15414 2502,-9881 4214,-23713 5137,-41498l1384 -34780 76672 0 0 91692 16205 0zm-81417 -56122c-658,14755 -1909,26907 -3753,36459 -1845,9551 -5139,16105 -9881,19663l64816 0 0 -79243 -49996 0 -1186 23121zm199588 20749l-86950 0c792,10802 4940,19531 12450,26184 7509,6653 16995,9978 28455,9978 6456,0 12385,-1151 17787,-3458 5400,-2305 10077,-5697 14029,-10176l7904 9090c-4610,5533 -10374,9749 -17289,12647 -6918,2898 -14525,4347 -22825,4347 -10672,0 -20123,-2273 -28357,-6817 -8234,-4545 -14656,-10836 -19268,-18873 -4610,-8035 -6915,-17126 -6915,-27269 0,-10145 2205,-19235 6619,-27271 4413,-8036 10473,-14293 18180,-18773 7707,-4480 16368,-6719 25986,-6719 9617,0 18246,2239 25888,6719 7641,4480 13635,10704 17981,18675 4348,7969 6522,17092 6522,27369l-197 4347zm-50194 -45056c-10011,0 -18411,3195 -25195,9585 -6786,6390 -10638,14722 -11561,24998l73710 0c-923,-10276 -4776,-18608 -11561,-24998 -6785,-6390 -15249,-9585 -25393,-9585zm149987 1186l-39325 0 0 91494 -14030 0 0 -91494 -39324 0 0 -12449 92679 0 0 12449zm106512 43870l-86949 0c791,10802 4940,19531 12450,26184 7508,6653 16995,9978 28455,9978 6456,0 12385,-1151 17787,-3458 5400,-2305 10077,-5697 14029,-10176l7904 9090c-4610,5533 -10374,9749 -17290,12647 -6917,2898 -14524,4347 -22824,4347 -10672,0 -20123,-2273 -28357,-6817 -8234,-4545 -14656,-10836 -19268,-18873 -4610,-8035 -6916,-17126 -6916,-27269 0,-10145 2206,-19235 6620,-27271 4413,-8036 10473,-14293 18180,-18773 7707,-4480 16368,-6719 25986,-6719 9617,0 18246,2239 25888,6719 7641,4480 13635,10704 17981,18675 4348,7969 6521,17092 6521,27369l-197 4347zm-50193 -45056c-10012,0 -18411,3195 -25195,9585 -6786,6390 -10638,14722 -11561,24998l73710 0c-923,-10276 -4776,-18608 -11562,-24998 -6784,-6390 -15248,-9585 -25392,-9585zm81415 -11263l14031 0 0 82600 69361 -82600 12450 0 0 103943 -14032 0 0 -82602 -69163 82602 -12647 0 0 -103943zm47230 -15019c-8960,0 -16073,-2240 -21343,-6719 -5269,-4479 -7969,-10802 -8103,-18970l10080 0c131,5138 1975,9255 5533,12351 3556,3095 8166,4644 13833,4644 5664,0 10308,-1549 13930,-4644 3624,-3096 5501,-7213 5632,-12351l10078 0c-131,8168 -2864,14491 -8200,18970 -5336,4479 -12482,6719 -21440,6719zm173698 15019l0 103943 -14030 0 0 -91494 -49799 0 -1382 25690c-1054,21605 -3556,38205 -7510,49798 -3952,11593 -11000,17390 -21144,17390 -2766,0 -6126,-527 -10078,-1581l989 -12054c2371,526 4018,789 4940,789 5400,0 9485,-2502 12252,-7508 2766,-5006 4610,-11199 5533,-18576 921,-7377 1712,-17126 2371,-29246l1778 -37151 76080 0zm39917 0l14031 0 0 82600 69361 -82600 12450 0 0 103943 -14032 0 0 -82602 -69163 82602 -12647 0 0 -103943zm135955 0l14032 0 0 46043 65408 0 0 -46043 14030 0 0 103943 -14030 0 0 -45845 -65408 0 0 45845 -14032 0 0 -103943zm206899 12449l-59480 0 0 91494 -14031 0 0 -103943 73511 0 0 12449zm56122 -13240c13570,0 23976,3393 31223,10177 7246,6784 10868,16830 10868,30136l0 64421 -13437 0 0 -16203c-3162,5400 -7807,9616 -13932,12647 -6126,3029 -13405,4544 -21836,4544 -11593,0 -20816,-2766 -27665,-8299 -6850,-5533 -10277,-12846 -10277,-21935 0,-8827 3196,-15941 9584,-21343 6391,-5400 16568,-8101 30532,-8101l33001 0 0 -6324c0,-8958 -2504,-15776 -7510,-20452 -5006,-4678 -12317,-7016 -21935,-7016 -6586,0 -12910,1087 -18970,3261 -6060,2174 -11263,5171 -15611,8992l-6324 -10474c5270,-4479 11593,-7937 18971,-10375 7377,-2437 15150,-3656 23318,-3656zm-4940 94656c7903,0 14689,-1812 20354,-5435 5664,-3622 9880,-8859 12647,-15710l0 -16993 -32606 0c-17784,0 -26678,6191 -26678,18574 0,6060 2307,10835 6917,14328 4610,3490 11066,5236 19366,5236z"/>
    <path class="fil1" d="M1898674 1156439l-14586 -47990 -73492 0 -14585 47990 -46063 0 71140 -202411 52226 0 71423 202411 -46063 0zm-24795 -83844c-13504,-43473 -21127,-68034 -22820,-73774 -1693,-5693 -2917,-10163 -3622,-13504 -3058,11763 -11764,40887 -26066,87278l52508 0zm202034 83844l-5646 -19667 -2212 0c-4516,7199 -10867,12705 -19149,16609 -8281,3905 -17691,5882 -28231,5882 -18114,0 -31758,-4848 -40934,-14540 -9175,-9692 -13785,-23666 -13785,-41875l0 -100546 42064 0 0 90101c0,11105 1975,19433 5880,25032 3953,5552 10258,8327 18914,8327 11763,0 20233,-3952 25454,-11809 5271,-7857 7859,-20891 7859,-39098l0 -72553 42062 0 0 154137 -32276 0zm141292 -30677c7387,0 16185,-1600 26488,-4847l0 31337c-10492,4657 -23336,7011 -38580,7011 -16845,0 -29078,-4235 -36747,-12751 -7669,-8516 -11526,-21267 -11526,-38299l0 -74340 -20092 0 0 -17784 23149 -14069 12139 -32465 26866 0 0 32747 43144 0 0 31571 -43144 0 0 74387c0,5976 1694,10350 5034,13221 3341,2869 7763,4281 13269,4281zm91135 -46580c0,15245 2494,26773 7482,34582 5034,7812 13174,11717 24465,11717 11198,0 19291,-3858 24184,-11622 4894,-7763 7387,-19337 7387,-34677 0,-15291 -2493,-26724 -7433,-34347 -4987,-7621 -13127,-11433 -24420,-11433 -11198,0 -19290,3765 -24230,11341 -4988,7621 -7435,19054 -7435,34439zm106523 0c0,25079 -6635,44699 -19856,58860 -13222,14162 -31664,21221 -55284,21221 -14773,0 -27806,-3246 -39145,-9741 -11294,-6445 -19950,-15760 -26020,-27899 -6069,-12141 -9127,-26302 -9127,-42441 0,-25219 6586,-44792 19713,-58766 13174,-13974 31619,-20936 55426,-20936 14774,0 27854,3199 39146,9645 11292,6445 19996,15668 26019,27712 6070,12044 9128,26160 9128,42345zm-563050 348502l79938 0 0 104594c-12986,4233 -25172,7198 -36605,8892 -11433,1694 -23149,2541 -35054,2541 -30440,0 -53637,-8941 -69680,-26820 -16045,-17879 -24043,-43520 -24043,-76974 0,-32559 9269,-57919 27901,-76128 18584,-18207 44416,-27288 77397,-27288 20655,0 40605,4140 59801,12422l-14208 34158c-14682,-7340 -29972,-11011 -45874,-11011 -18492,0 -33266,6212 -44369,18586 -11152,12420 -16704,29124 -16704,50060 0,21880 4471,38582 13457,50109 8940,11528 21973,17315 39052,17315 8939,0 17973,-894 27148,-2777l0 -42109 -38157 0 0 -35570zm166651 113203l-42063 0 0 -214550 42063 0 0 214550zm141997 0l-8139 -20937 -1081 0c-7106,8940 -14398,15103 -21880,18585 -7479,3435 -17220,5176 -29265,5176 -14821,0 -26441,-4235 -34957,-12705 -8517,-8469 -12751,-20513 -12751,-36134 0,-16374 5694,-28466 17174,-36228 11433,-7764 28699,-12093 51754,-12893l26726 -847 0 -6727c0,-15574 -8000,-23385 -23997,-23385 -12280,0 -26771,3718 -43427,11150l-13880 -28370c17737,-9270 37405,-13927 59001,-13927 20656,0 36511,4518 47521,13504 11056,8987 16563,22678 16563,41074l0 102664 -29362 0zm-12419 -71470l-16280 566c-12187,375 -21314,2586 -27289,6634 -5976,4046 -8940,10256 -8940,18537 0,11856 6776,17832 20373,17832 9786,0 17549,-2822 23383,-8469 5835,-5599 8753,-13080 8753,-22348l0 -12752zm227252 71470l-42015 0 0 -89960c0,-11150 -1976,-19478 -5928,-25030 -3952,-5553 -10258,-8328 -18868,-8328 -11763,0 -20278,3905 -25501,11761 -5269,7859 -7857,20892 -7857,39053l0 72504 -42016 0 0 -154137 32088 0 5646 19761 2353 0c4704,-7434 11150,-13033 19384,-16843 8186,-3812 17550,-5740 28042,-5740 17879,0 31478,4846 40745,14538 9317,9692 13927,23666 13927,41969l0 100452zm150609 0l-121766 0 0 -24796 71421 -97205 -67139 0 0 -32136 114990 0 0 27290 -69493 94711 71987 0 0 32136z"/>
    <path class="fil1" d="M753922 1614688l-52858 -173923 -266341 0 -52859 173923 -166931 0 257814 -733544 189269 0 57548 163090c14728,-26677 32969,-50656 54744,-71936 67354,-65989 160964,-98898 280494,-98898 74855,0 147151,15006 216720,45015l-51494 123792c-53199,-26600 -108616,-39900 -166250,-39900 -67011,0 -120552,22508 -160792,67353 -40412,45015 -60532,105547 -60532,181425 0,79288 16199,139820 48766,181594 32398,41776 79630,62750 141525,62750 32397,0 65136,-3240 98386,-10061l0 -152609 -138286 0 0 -128906 289701 0 0 379049c-47061,15345 -91225,26088 -132658,32227 -41436,6137 -83892,9207 -127032,9207 -34752,0 -66897,-3218 -96449,-9648l-162485 0zm-89860 -303854c-48937,-157552 -76561,-246559 -82698,-267363 -6139,-20632 -10573,-36830 -13131,-48937 -11083,42630 -42627,148175 -94462,316300l190291 0z"/>
    <polygon class="fil2 str0" points="1470111,739846 1500122,739846 1500122,1757894 1470111,1757894 "/>
   </g>
  </g>
 </g>
</svg>
